<?xml version="1.0" encoding="UTF-8" standalone="no"?>
<!-- Generator: Adobe Illustrator 27.5.0, SVG Export Plug-In . SVG Version: 6.00 Build 0)  -->

<svg
   version="1.1"
   x="0px"
   y="0px"
   viewBox="0 0 128 128"
   xml:space="preserve"
   id="svg241"
   sodipodi:docname="banana.svg"
   width="128"
   height="128"
   inkscape:version="1.3.2 (091e20e, 2023-11-25)"
   xmlns:inkscape="http://www.inkscape.org/namespaces/inkscape"
   xmlns:sodipodi="http://sodipodi.sourceforge.net/DTD/sodipodi-0.dtd"
   xmlns="http://www.w3.org/2000/svg"
   xmlns:svg="http://www.w3.org/2000/svg"><defs
   id="defs241" /><sodipodi:namedview
   id="namedview241"
   pagecolor="#ffffff"
   bordercolor="#000000"
   borderopacity="0.25"
   inkscape:showpageshadow="false"
   inkscape:pageopacity="0.0"
   inkscape:pagecheckerboard="0"
   inkscape:deskcolor="#d1d1d1"
   showborder="false"
   borderlayer="false"
   inkscape:zoom="4.2890625"
   inkscape:cx="64"
   inkscape:cy="64"
   inkscape:window-width="1440"
   inkscape:window-height="762"
   inkscape:window-x="0"
   inkscape:window-y="158"
   inkscape:window-maximized="1"
   inkscape:current-layer="svg241" />



<g
   id="g70"
   transform="matrix(1.2823979,0,0,1.2823979,-77.150143,-189.62434)">
		<g
   id="g49">
			<g
   id="g47">
				
					<circle
   transform="matrix(0.7071,-0.7071,0.7071,0.7071,-109.2489,136.4368)"
   style="fill:#eae8ff"
   cx="110.069"
   cy="200.09399"
   id="ellipse46"
   r="47.587002" />
			</g>
			<g
   id="g48">
				
					<circle
   transform="matrix(0.7071,-0.7071,0.7071,0.7071,-105.9407,135.0664)"
   style="fill:#928fe3"
   cx="110.069"
   cy="195.41499"
   id="ellipse47"
   r="47.548" />
			</g>
		</g>
		<g
   id="g69">
			<g
   id="g68">
				<g
   id="g54">
					<g
   id="g51">
						<g
   id="g50">
							<path
   style="fill:#ffa45e"
   d="m 110.156,190.885 c 0,0 -8.022,4.843 -14.89,4.843 -5.101,0 -5.056,-0.784 -6.868,-0.784 -1.812,0 -2.034,3.311 -2.034,3.311 0,0 1.78,7.06 8.337,5.788 0,0.001 8.297,-1.801 15.455,-13.158 z"
   id="path49" />
						</g>
					</g>
					<g
   id="g53">
						<g
   id="g52">
							<path
   style="fill:#ffe25e"
   d="m 96.557,214.103 c -6.749,-0.2 -9.115,-3.973 -9.87,-5.819 -0.239,-0.585 -0.174,-1.248 0.149,-1.791 l 0.609,-1.023 c 0.362,-0.608 1.004,-1.014 1.711,-1.027 14.129,-0.26 23.887,-15.053 24.573,-23.184 0.318,-3.767 3.578,-6.408 3.578,-6.408 0,0 -0.267,-6.215 -0.282,-7.853 -0.011,-1.236 0.939,-1.886 2.748,-1.906 1.87,-0.021 2.483,0.867 2.493,2.07 0.02,2.316 -0.361,7.529 1.605,9.331 6.637,6.084 6.898,13.261 6.506,19.236 -0.402,6.122 -6.512,26.726 -29.526,26.726 -3.403,0 -5.603,-1.762 -6.562,-2.741 -0.367,-0.375 -0.53,-0.902 -0.463,-1.423 0.097,-0.755 0.263,-1.845 0.459,-2.293 z"
   id="path51" />
						</g>
					</g>
				</g>
				<g
   id="g55">
					<path
   style="fill:#ffa45e"
   d="m 109.652,206.816 c 8.559,-6.605 9.834,-17.423 9.821,-17.433 -2.083,-1.527 -10.188,25.042 -32.484,16.852 0,0 -0.617,0.811 -0.447,1.49 0.544,2.178 3.225,6.191 10.014,6.377 0.954,-0.531 2.413,-1.203 4.332,-2.084 2.485,-1.176 5.775,-2.894 8.764,-5.202 z"
   id="path54" />
				</g>
				<g
   id="g60">
					<g
   id="g56">
						<path
   style="fill:#f6e2ae"
   d="m 125.338,177.97 c -0.005,0 -0.008,0 -0.012,0 0.023,0.025 0.044,0.05 0.066,0.075 z"
   id="path55" />
					</g>
					<g
   id="g57">
						<path
   style="fill:#f6e2ae"
   d="m 125.392,178.045 2.635,3.708 c -0.686,-1.259 -1.551,-2.5 -2.635,-3.708 z"
   id="path56" />
					</g>
					<g
   id="g59">
						<g
   id="g58">
							<path
   style="fill:#ffe77a"
   d="m 94.288,219.714 c 0.959,0.979 3.159,2.741 6.562,2.741 23.014,0 29.125,-20.604 29.526,-26.726 0.283,-4.319 0.212,-9.266 -2.35,-13.975 l -2.635,-3.708 c -0.022,-0.025 -0.043,-0.05 -0.066,-0.075 -3.515,-0.107 -1.663,2.726 0.012,9.966 1.678,7.25 -0.86,27.367 -23.406,29.565 -8.107,0.79 -7.648,-1.503 -7.648,-1.503 -0.197,0.447 -0.363,1.538 -0.459,2.293 -0.066,0.519 0.097,1.047 0.464,1.422 z"
   id="path57" />
						</g>
					</g>
				</g>
				<g
   id="g67">
					<g
   id="g61">
						<path
   style="fill:#47124e"
   d="m 96.557,214.602 c -0.005,0 -0.01,0 -0.015,0 -7.134,-0.212 -9.593,-4.356 -10.318,-6.129 -0.293,-0.716 -0.225,-1.552 0.183,-2.236 l 0.609,-1.023 c 0.458,-0.768 1.274,-1.255 2.131,-1.271 1.607,-0.029 3.241,-0.278 4.855,-0.74 0.269,-0.075 0.543,0.079 0.618,0.344 0.076,0.265 -0.077,0.542 -0.343,0.618 -1.698,0.485 -3.418,0.747 -5.112,0.778 -0.514,0.009 -1.008,0.309 -1.29,0.783 l -0.609,1.023 c -0.248,0.416 -0.291,0.919 -0.116,1.346 0.81,1.977 3.11,5.321 9.422,5.508 0.276,0.008 0.493,0.239 0.485,0.515 -0.008,0.27 -0.231,0.484 -0.5,0.484 z"
   id="path60" />
					</g>
					<g
   id="g62">
						<path
   style="fill:#47124e"
   d="m 102.104,200.297 c -0.149,0 -0.298,-0.067 -0.396,-0.195 -0.168,-0.219 -0.127,-0.533 0.092,-0.701 7.274,-5.601 11.025,-13.352 11.433,-18.184 0.023,-0.275 0.271,-0.482 0.54,-0.456 0.275,0.023 0.479,0.265 0.456,0.54 -0.52,6.166 -5.38,13.934 -11.819,18.892 -0.093,0.07 -0.2,0.104 -0.306,0.104 z"
   id="path61" />
					</g>
					<g
   id="g63">
						<path
   style="fill:#47124e"
   d="m 130.457,191.558 c -0.266,0 -0.487,-0.209 -0.499,-0.477 -0.271,-5.932 -2.313,-10.45 -6.426,-14.219 -1.861,-1.706 -1.809,-5.861 -1.773,-8.609 0.005,-0.405 0.01,-0.772 0.007,-1.085 -0.004,-0.509 -0.129,-0.877 -0.382,-1.126 -0.313,-0.306 -0.845,-0.465 -1.605,-0.449 -0.002,0 -0.004,0 -0.006,0 -0.273,0 -0.497,-0.22 -0.5,-0.494 -0.003,-0.276 0.218,-0.502 0.494,-0.506 1.023,0.001 1.808,0.235 2.316,0.735 0.447,0.438 0.677,1.054 0.683,1.831 0.003,0.319 -0.002,0.694 -0.007,1.106 -0.031,2.415 -0.082,6.455 1.449,7.859 4.32,3.959 6.464,8.697 6.748,14.911 0.013,0.276 -0.2,0.51 -0.477,0.522 -0.007,0.001 -0.015,0.001 -0.022,0.001 z"
   id="path62" />
					</g>
					<g
   id="g64">
						<path
   style="fill:#47124e"
   d="m 100.851,222.955 c -3.554,0 -5.86,-1.811 -6.92,-2.891 -0.471,-0.481 -0.691,-1.151 -0.602,-1.837 0.156,-1.215 0.323,-2.033 0.497,-2.43 0.536,-1.219 2.466,-2.107 5.138,-3.337 2.306,-1.062 5.176,-2.382 8.019,-4.316 0.227,-0.154 0.538,-0.097 0.694,0.132 0.155,0.229 0.097,0.54 -0.132,0.695 -2.912,1.98 -5.823,3.321 -8.163,4.397 -2.378,1.095 -4.257,1.96 -4.64,2.831 -0.13,0.296 -0.283,1.082 -0.421,2.155 -0.05,0.381 0.068,0.749 0.324,1.01 0.948,0.967 3.017,2.591 6.205,2.591 0.276,0 0.5,0.224 0.5,0.5 0.001,0.276 -0.223,0.5 -0.499,0.5 z"
   id="path63" />
					</g>
					<g
   id="g65">
						<path
   style="fill:#47124e"
   d="m 111.737,205.371 c -0.128,0 -0.255,-0.048 -0.352,-0.146 -0.196,-0.195 -0.196,-0.511 -0.002,-0.707 4.882,-4.91 7.532,-11.251 8.104,-19.386 0.02,-0.276 0.273,-0.487 0.534,-0.463 0.275,0.019 0.483,0.258 0.464,0.534 -0.582,8.268 -3.405,15.004 -8.394,20.02 -0.097,0.098 -0.226,0.148 -0.354,0.148 z"
   id="path64" />
					</g>
					<g
   id="g66">
						<path
   style="fill:#47124e"
   d="m 92.395,204.544 c -4.778,0 -6.444,-5.906 -6.513,-6.157 -0.015,-0.054 -0.021,-0.109 -0.017,-0.165 0.011,-0.154 0.28,-3.777 2.533,-3.777 0.276,0 0.5,0.224 0.5,0.5 0,0.276 -0.224,0.5 -0.5,0.5 -1.053,0 -1.454,1.955 -1.528,2.758 0.206,0.67 1.781,5.341 5.524,5.341 0.276,0 0.5,0.224 0.5,0.5 10e-4,0.276 -0.223,0.5 -0.499,0.5 z"
   id="path65" />
					</g>
				</g>
			</g>
		</g>
	</g></svg>
