<?xml version="1.0" encoding="UTF-8" standalone="no"?>
<!-- Generator: Adobe Illustrator 27.5.0, SVG Export Plug-In . SVG Version: 6.00 Build 0)  -->

<svg
   version="1.1"
   x="0px"
   y="0px"
   viewBox="0 0 128 128"
   xml:space="preserve"
   id="svg97"
   sodipodi:docname="cashew.svg"
   width="128"
   height="128"
   inkscape:version="1.3.2 (091e20e, 2023-11-25)"
   xmlns:inkscape="http://www.inkscape.org/namespaces/inkscape"
   xmlns:sodipodi="http://sodipodi.sourceforge.net/DTD/sodipodi-0.dtd"
   xmlns="http://www.w3.org/2000/svg"
   xmlns:svg="http://www.w3.org/2000/svg"><defs
   id="defs97" /><sodipodi:namedview
   id="namedview97"
   pagecolor="#ffffff"
   bordercolor="#000000"
   borderopacity="0.25"
   inkscape:showpageshadow="false"
   inkscape:pageopacity="0.0"
   inkscape:pagecheckerboard="0"
   inkscape:deskcolor="#d1d1d1"
   showborder="false"
   borderlayer="false"
   labelstyle="below"
   inkscape:zoom="0.953125"
   inkscape:cx="107.54098"
   inkscape:cy="288"
   inkscape:window-width="1440"
   inkscape:window-height="762"
   inkscape:window-x="0"
   inkscape:window-y="158"
   inkscape:window-maximized="1"
   inkscape:current-layer="svg97" />


<g
   id="g45"
   transform="matrix(1.7918137,0,0,1.7918137,-201.57008,-304.02957)">
		
			
		
		<path
   style="clip-rule:evenodd;fill:#7c6c5d;fill-rule:evenodd"
   d="m 148.157,241.038 c 19.642,0 35.661,-16.02 35.661,-35.662 0,-19.642 -16.02,-35.662 -35.661,-35.662 -19.643,0 -35.662,16.02 -35.662,35.662 0,19.642 16.02,35.662 35.662,35.662 z"
   id="path34" />
		<path
   style="clip-rule:evenodd;fill:#675a4f;fill-rule:evenodd"
   d="m 183.879,203.508 c 0.033,0.631 0.052,1.267 0.052,1.906 0,19.696 -15.967,35.662 -35.662,35.662 -0.343,0 -0.685,-0.006 -1.025,-0.016 l -12.824,-12.684 13.68,-17.04 9.12,-28.08 z"
   id="path35" />
		
		<g
   id="g44">
			<path
   style="clip-rule:evenodd;fill:#ebd3a7;fill-rule:evenodd"
   d="m 133.436,226.173 c 0.418,8.279 26.949,12.331 33.37,-15.456 5.6,-24.232 -22.4,-42.249 -33.912,-26.169 -1.244,1.738 -1.248,3.021 -0.219,4.529 -5.262,7.256 9.44,5.809 12.647,14.618 3.981,13.134 -12.259,15.095 -11.886,22.478 z"
   id="path40" />
			<path
   style="clip-rule:evenodd;fill:#d9be8b;fill-rule:evenodd"
   d="m 133.436,226.173 c 0.418,8.279 26.949,12.331 33.37,-15.456 1.75,-7.573 0.219,-14.539 -3.065,-20.046 l 0.107,0.227 c 5.936,12.782 2.25,33.401 -14.803,34.94 -11.965,1.08 -7.486,-5.542 -5.568,-11.526 -3.715,4.632 -10.279,7.136 -10.041,11.861 z"
   id="path41" />
			<path
   style="clip-rule:evenodd;fill:#b59467;fill-rule:evenodd"
   d="m 151.993,230.723 c 6.194,-2.601 12.187,-8.638 14.813,-20.005 4.013,-17.364 -9.227,-31.534 -21.289,-32.257 -7.02,1.188 -12.386,5.675 -9.382,10.082 -2.839,4.122 10.035,5.748 13.025,13.967 3.854,12.299 -7.577,17.181 -11.556,22.523 -2.523,3.388 5.798,8.049 14.156,5.756 0.079,-0.021 0.156,-0.044 0.233,-0.066 z"
   id="path42" />
			<path
   style="clip-rule:evenodd;fill:#d9ba8f;fill-rule:evenodd"
   d="m 160.264,188.436 c -1.866,-3.603 -4.558,-5.097 -7.939,-6.819 -3.932,-2.002 -9.32,-2.477 -12.861,0.669 -3.231,2.87 1.245,3.728 4.32,2.741 5.486,-1.761 16.206,4.238 16.628,3.789 z"
   id="path43" />
			<path
   style="clip-rule:evenodd;fill:#9c7b4c;fill-rule:evenodd"
   d="m 151.993,230.723 c 6.194,-2.601 12.187,-8.638 14.813,-20.005 1.749,-7.568 0.22,-14.529 -3.061,-20.036 l 0.102,0.216 c 5.936,12.782 2.25,33.401 -14.803,34.94 -7.049,0.636 -8.388,-1.402 -7.908,-4.406 -1.38,1.236 -2.642,2.407 -3.531,3.601 -2.523,3.388 5.798,8.049 14.156,5.756 0.078,-0.021 0.155,-0.044 0.232,-0.066 z"
   id="path44" />
		</g>
	</g></svg>
