<?xml version="1.0" encoding="UTF-8" standalone="no"?>
<!-- Generator: Adobe Illustrator 27.5.0, SVG Export Plug-In . SVG Version: 6.00 Build 0)  -->

<svg
   version="1.1"
   x="0px"
   y="0px"
   viewBox="0 0 128 128"
   xml:space="preserve"
   id="svg362"
   sodipodi:docname="crab.svg"
   width="128"
   height="128"
   inkscape:version="1.3.2 (091e20e, 2023-11-25)"
   xmlns:inkscape="http://www.inkscape.org/namespaces/inkscape"
   xmlns:sodipodi="http://sodipodi.sourceforge.net/DTD/sodipodi-0.dtd"
   xmlns="http://www.w3.org/2000/svg"
   xmlns:svg="http://www.w3.org/2000/svg"><defs
   id="defs362" /><sodipodi:namedview
   id="namedview362"
   pagecolor="#ffffff"
   bordercolor="#000000"
   borderopacity="0.25"
   inkscape:showpageshadow="false"
   inkscape:pageopacity="0.0"
   inkscape:pagecheckerboard="0"
   inkscape:deskcolor="#d1d1d1"
   showborder="false"
   borderlayer="false"
   inkscape:zoom="0.472"
   inkscape:cx="248.94068"
   inkscape:cy="250"
   inkscape:window-width="1312"
   inkscape:window-height="449"
   inkscape:window-x="0"
   inkscape:window-y="158"
   inkscape:window-maximized="0"
   inkscape:current-layer="svg362" />



<g
   id="g230"
   transform="matrix(1.277888,0,0,1.277888,-76.651716,-380.8935)">
		<g
   id="g175">
			<g
   id="g172">
				<g
   id="g171">
					
						<circle
   transform="matrix(0.7071,-0.7071,0.7071,0.7071,-215.7051,180.5323)"
   style="fill:#eae8ff"
   cx="110.069"
   cy="350.64499"
   id="ellipse170"
   r="47.587002" />
				</g>
			</g>
			<g
   id="g174">
				<g
   id="g173">
					
						<circle
   transform="matrix(0.2298,-0.9732,0.9732,0.2298,-251.564,373.3139)"
   style="fill:#b2e08d"
   cx="110.069"
   cy="345.58899"
   id="ellipse172"
   r="47.548" />
				</g>
			</g>
		</g>
		<g
   id="g229">
			<g
   id="g218">
				<g
   id="g177">
					<g
   id="g176">
						<path
   style="fill:#cb4755"
   d="m 129.814,328.843 -4.82,-4.82 c -2.644,2.644 -2.644,6.996 0,9.64 2.644,2.644 6.996,2.644 9.64,0 2.644,-2.644 2.644,-6.996 0,-9.64 -1.167,-1.166 -2.718,-1.871 -4.364,-1.981 z"
   id="path175" />
					</g>
				</g>
				<g
   id="g180">
					<g
   id="g179">
						<g
   id="g178">
							<path
   style="fill:#cb4755"
   d="m 93.782,343.453 c -0.077,0 -0.156,-0.008 -0.235,-0.024 -5.753,-1.181 -7.292,-6.815 -7.303,-9.629 -0.002,-0.642 0.517,-1.165 1.159,-1.167 10e-4,0 0.003,0 0.004,0 0.64,0 1.16,0.517 1.163,1.157 0.003,0.267 0.124,6.268 5.444,7.361 0.629,0.129 1.035,0.744 0.906,1.374 -0.113,0.549 -0.597,0.928 -1.138,0.928 z"
   id="path177" />
						</g>
					</g>
				</g>
				<g
   id="g183">
					<g
   id="g182">
						<g
   id="g181">
							<path
   style="fill:#cb4755"
   d="m 77.639,347.998 c -0.149,0 -0.3,-0.029 -0.446,-0.09 -0.592,-0.247 -0.874,-0.926 -0.628,-1.52 0.136,-0.327 3.392,-8.007 8.445,-6.22 4.179,1.477 8.97,4.865 9.172,5.008 0.524,0.372 0.646,1.098 0.274,1.622 -0.372,0.524 -1.098,0.647 -1.622,0.275 -0.047,-0.033 -4.731,-3.343 -8.6,-4.711 -2.938,-1.039 -5.496,4.86 -5.521,4.92 -0.186,0.447 -0.618,0.716 -1.074,0.716 z"
   id="path180" />
						</g>
					</g>
				</g>
				<g
   id="g186">
					<g
   id="g185">
						<g
   id="g184">
							<path
   style="fill:#cb4755"
   d="m 76.475,355.397 c -0.159,0 -0.32,-0.033 -0.474,-0.102 -0.587,-0.262 -0.849,-0.95 -0.587,-1.537 0.125,-0.279 3.113,-6.825 7.762,-5.586 3.838,1.022 9.043,3.841 9.263,3.96 0.564,0.307 0.773,1.013 0.466,1.578 -0.308,0.564 -1.014,0.773 -1.578,0.466 -0.051,-0.028 -5.183,-2.806 -8.75,-3.756 -2.713,-0.724 -5.017,4.237 -5.04,4.287 -0.192,0.434 -0.617,0.69 -1.062,0.69 z"
   id="path183" />
						</g>
					</g>
				</g>
				<g
   id="g189">
					<g
   id="g188">
						<g
   id="g187">
							<path
   style="fill:#cb4755"
   d="m 82.221,364.402 c -0.113,0 -0.228,-0.017 -0.342,-0.052 -0.614,-0.188 -0.959,-0.839 -0.771,-1.453 0.812,-2.646 3.206,-6.854 7.017,-5.839 3.909,1.041 6.892,3.165 7.017,3.255 0.522,0.375 0.64,1.102 0.265,1.624 -0.375,0.521 -1.102,0.639 -1.623,0.266 v 0 c -0.027,-0.02 -2.776,-1.97 -6.258,-2.896 -2.593,-0.695 -4.178,4.224 -4.194,4.273 -0.153,0.5 -0.614,0.822 -1.111,0.822 z"
   id="path186" />
						</g>
					</g>
				</g>
				<g
   id="g192">
					<g
   id="g191">
						<g
   id="g190">
							<path
   style="fill:#cb4755"
   d="m 142.494,347.998 c 0.149,0 0.3,-0.029 0.446,-0.09 0.593,-0.247 0.874,-0.926 0.628,-1.52 -0.136,-0.327 -3.392,-8.007 -8.445,-6.22 -4.179,1.477 -8.97,4.865 -9.172,5.008 -0.523,0.372 -0.646,1.098 -0.275,1.622 0.372,0.524 1.098,0.647 1.622,0.275 0.047,-0.033 4.731,-3.343 8.6,-4.711 2.938,-1.039 5.496,4.86 5.521,4.92 0.186,0.447 0.619,0.716 1.075,0.716 z"
   id="path189" />
						</g>
					</g>
				</g>
				<g
   id="g195">
					<g
   id="g194">
						<g
   id="g193">
							<path
   style="fill:#cb4755"
   d="m 143.663,355.397 c 0.159,0 0.32,-0.033 0.474,-0.102 0.587,-0.262 0.849,-0.95 0.587,-1.537 -0.125,-0.279 -3.113,-6.825 -7.762,-5.586 -3.838,1.022 -9.043,3.841 -9.263,3.96 -0.564,0.307 -0.773,1.013 -0.466,1.578 0.307,0.564 1.014,0.773 1.578,0.466 0.051,-0.028 5.183,-2.806 8.75,-3.756 2.713,-0.724 5.017,4.237 5.04,4.287 0.193,0.434 0.618,0.69 1.062,0.69 z"
   id="path192" />
						</g>
					</g>
				</g>
				<g
   id="g198">
					<g
   id="g197">
						<g
   id="g196">
							<path
   style="fill:#cb4755"
   d="m 137.912,364.402 c 0.113,0 0.228,-0.017 0.342,-0.052 0.614,-0.188 0.959,-0.839 0.771,-1.453 -0.812,-2.646 -3.206,-6.854 -7.017,-5.839 -3.909,1.041 -6.892,3.165 -7.017,3.255 -0.522,0.375 -0.641,1.102 -0.266,1.624 0.375,0.521 1.102,0.639 1.623,0.266 v 0 c 0.027,-0.02 2.776,-1.97 6.258,-2.896 2.593,-0.695 4.178,4.224 4.194,4.273 0.154,0.5 0.615,0.822 1.112,0.822 z"
   id="path195" />
						</g>
					</g>
				</g>
				<g
   id="g201">
					<g
   id="g200">
						<g
   id="g199">
							<path
   style="fill:#cb4755"
   d="m 126.351,343.453 c 0.077,0 0.156,-0.008 0.235,-0.024 5.753,-1.181 7.292,-6.815 7.303,-9.629 0.002,-0.642 -0.517,-1.165 -1.159,-1.167 -10e-4,0 -0.003,0 -0.004,0 -0.64,0 -1.16,0.517 -1.163,1.157 -0.003,0.267 -0.124,6.268 -5.444,7.361 -0.629,0.129 -1.035,0.744 -0.906,1.374 0.113,0.549 0.597,0.928 1.138,0.928 z"
   id="path198" />
						</g>
					</g>
				</g>
				<g
   id="g203">
					<g
   id="g202">
						<path
   style="fill:#cb4755"
   d="m 90.319,328.843 4.82,-4.82 c 2.644,2.644 2.644,6.996 0,9.64 -2.644,2.644 -6.996,2.644 -9.64,0 -2.644,-2.644 -2.644,-6.996 0,-9.64 1.167,-1.166 2.718,-1.871 4.364,-1.981 z"
   id="path201" />
					</g>
				</g>
				<g
   id="g205">
					<g
   id="g204">
						<path
   style="fill:#de5463"
   d="m 130.469,352.52 c 0,8.585 -8.868,16.33 -20.403,16.33 -11.534,0 -20.403,-7.745 -20.403,-16.33 0,-8.585 9.948,-18.724 20.403,-18.724 10.455,0 20.403,10.139 20.403,18.724 z"
   id="path203" />
					</g>
				</g>
				<g
   style="opacity:0.15"
   id="g207">
					<g
   id="g206">
						<path
   style="fill:#b62ec9"
   d="m 89.663,352.52 c 0,8.585 8.869,16.33 20.403,16.33 3.856,0 7.401,-0.88 10.429,-2.353 -14.46,-5.486 -21.699,-19.182 -21.259,-29.177 -5.579,3.714 -9.573,9.764 -9.573,15.2 z"
   id="path205" />
					</g>
				</g>
				<g
   id="g210">
					<g
   id="g209">
						<g
   id="g208">
							<path
   style="fill:#cb4755"
   d="m 104.116,340.507 c -0.834,0 -1.634,-0.468 -2.019,-1.27 l -2.516,-5.246 c -0.534,-1.114 -0.064,-2.45 1.05,-2.984 1.115,-0.533 2.45,-0.063 2.984,1.05 l 2.516,5.246 c 0.534,1.114 0.064,2.45 -1.05,2.985 -0.312,0.148 -0.641,0.219 -0.965,0.219 z"
   id="path207" />
						</g>
					</g>
				</g>
				<g
   id="g213">
					<g
   id="g212">
						<g
   id="g211">
							<path
   style="fill:#cb4755"
   d="m 116.017,340.507 c -0.324,0 -0.654,-0.071 -0.965,-0.22 -1.114,-0.534 -1.584,-1.87 -1.05,-2.985 l 2.516,-5.246 c 0.534,-1.114 1.87,-1.584 2.984,-1.05 1.114,0.534 1.584,1.87 1.05,2.984 l -2.516,5.246 c -0.385,0.803 -1.185,1.271 -2.019,1.271 z"
   id="path210" />
						</g>
					</g>
				</g>
				<g
   id="g215">
					<g
   id="g214">
						<circle
   style="fill:#303030"
   cx="101.598"
   cy="333.02301"
   r="1.597"
   id="circle213" />
					</g>
				</g>
				<g
   id="g217">
					<g
   id="g216">
						<circle
   style="fill:#303030"
   cx="118.535"
   cy="333.02301"
   r="1.597"
   id="circle215" />
					</g>
				</g>
			</g>
			<g
   id="g219">
				<path
   style="fill:#47124e"
   d="m 94.525,342.242 c -0.054,0 -0.11,-0.009 -0.164,-0.028 -4.723,-1.641 -5.589,-4.028 -6.071,-6.332 -0.057,-0.271 0.117,-0.535 0.387,-0.592 0.271,-0.058 0.535,0.116 0.592,0.387 0.354,1.688 0.838,4 5.421,5.593 0.261,0.09 0.399,0.376 0.308,0.636 -0.072,0.207 -0.266,0.336 -0.473,0.336 z"
   id="path218" />
			</g>
			<g
   id="g220">
				<path
   style="fill:#47124e"
   d="m 124.997,334.49 c -0.128,0 -0.256,-0.049 -0.354,-0.146 -1.374,-1.374 -2.13,-3.211 -2.13,-5.174 0,-1.963 0.756,-3.8 2.13,-5.173 0.195,-0.195 0.512,-0.195 0.707,0 0.195,0.195 0.195,0.512 0,0.707 -1.185,1.185 -1.837,2.77 -1.837,4.466 0,1.696 0.652,3.282 1.837,4.467 0.195,0.195 0.195,0.512 0,0.707 -0.097,0.097 -0.225,0.146 -0.353,0.146 z"
   id="path219" />
			</g>
			<g
   id="g221">
				<path
   style="fill:#47124e"
   d="m 142.497,348.825 c -0.673,0 -1.276,-0.401 -1.536,-1.023 -0.611,-1.435 -2.825,-5.37 -4.894,-4.642 -2.536,0.897 -5.472,2.678 -6.997,3.66 -0.231,0.15 -0.54,0.083 -0.691,-0.15 -0.149,-0.232 -0.083,-0.542 0.15,-0.691 1.907,-1.228 4.705,-2.877 7.205,-3.761 3.438,-1.219 6.124,5.136 6.15,5.2 0.137,0.327 0.539,0.492 0.866,0.356 0.338,-0.141 0.499,-0.529 0.358,-0.867 -0.106,-0.255 0.015,-0.547 0.271,-0.653 0.254,-0.105 0.547,0.016 0.653,0.271 0.351,0.846 -0.052,1.82 -0.897,2.172 -0.202,0.085 -0.418,0.128 -0.638,0.128 z"
   id="path220" />
			</g>
			<g
   id="g222">
				<path
   style="fill:#47124e"
   d="m 143.661,356.225 c -0.655,0 -1.252,-0.387 -1.52,-0.985 -0.02,-0.045 -2.182,-4.614 -4.454,-4.008 -2.344,0.624 -5.42,2.078 -7.045,2.889 -0.246,0.124 -0.547,0.024 -0.67,-0.224 -0.124,-0.247 -0.023,-0.547 0.224,-0.67 2.026,-1.012 4.926,-2.346 7.234,-2.961 3.188,-0.839 5.602,4.515 5.625,4.568 0.144,0.32 0.549,0.48 0.875,0.333 0.163,-0.073 0.287,-0.204 0.35,-0.369 0.064,-0.166 0.058,-0.346 -0.014,-0.507 -0.113,-0.252 0,-0.548 0.252,-0.661 0.254,-0.114 0.548,10e-4 0.661,0.252 0.181,0.406 0.194,0.857 0.035,1.272 -0.158,0.415 -0.469,0.743 -0.874,0.925 -0.216,0.096 -0.445,0.146 -0.679,0.146 z"
   id="path221" />
			</g>
			<g
   id="g223">
				<path
   style="fill:#47124e"
   d="m 76.478,356.225 c -0.235,0 -0.463,-0.049 -0.679,-0.146 -0.405,-0.181 -0.716,-0.509 -0.874,-0.924 -0.159,-0.415 -0.146,-0.867 0.036,-1.273 0.114,-0.251 0.409,-0.363 0.661,-0.252 0.252,0.113 0.365,0.409 0.252,0.661 -0.073,0.162 -0.078,0.341 -0.015,0.507 0.063,0.165 0.187,0.296 0.349,0.369 0.329,0.149 0.731,-0.012 0.877,-0.334 0.023,-0.053 2.441,-5.413 5.625,-4.566 2.307,0.614 5.207,1.949 7.233,2.961 0.247,0.123 0.348,0.423 0.224,0.67 -0.123,0.247 -0.421,0.35 -0.67,0.224 -1.625,-0.811 -4.701,-2.265 -7.044,-2.889 -2.271,-0.609 -4.434,3.963 -4.456,4.01 -0.268,0.595 -0.864,0.982 -1.519,0.982 z"
   id="path222" />
			</g>
			<g
   id="g224">
				<path
   style="fill:#47124e"
   d="m 77.642,348.825 c -0.221,0 -0.436,-0.043 -0.639,-0.128 -0.845,-0.352 -1.248,-1.326 -0.897,-2.172 0.106,-0.255 0.4,-0.377 0.653,-0.271 0.255,0.106 0.376,0.398 0.271,0.653 -0.14,0.337 0.021,0.726 0.358,0.867 0.332,0.137 0.73,-0.028 0.868,-0.357 0.026,-0.063 2.705,-6.418 6.149,-5.199 2.501,0.884 5.299,2.534 7.206,3.761 0.232,0.149 0.299,0.459 0.15,0.691 -0.149,0.232 -0.46,0.299 -0.691,0.15 -1.525,-0.981 -4.461,-2.762 -6.998,-3.66 -2.073,-0.728 -4.282,3.207 -4.894,4.644 -0.259,0.619 -0.863,1.021 -1.536,1.021 z"
   id="path223" />
			</g>
			<g
   id="g225">
				<path
   style="fill:#47124e"
   d="m 137.915,365.229 c -0.735,0 -1.374,-0.473 -1.59,-1.176 -0.013,-0.04 -1.498,-4.494 -3.586,-3.936 -0.265,0.072 -0.541,-0.086 -0.612,-0.353 -0.071,-0.267 0.087,-0.541 0.354,-0.612 3.049,-0.814 4.73,4.383 4.8,4.605 0.105,0.344 0.472,0.553 0.831,0.443 0.349,-0.107 0.546,-0.478 0.439,-0.829 -0.081,-0.264 0.067,-0.544 0.331,-0.625 0.265,-0.083 0.544,0.067 0.625,0.332 0.269,0.877 -0.226,1.809 -1.103,2.078 -0.161,0.049 -0.325,0.073 -0.489,0.073 z"
   id="path224" />
			</g>
			<g
   id="g226">
				<path
   style="fill:#47124e"
   d="m 82.224,365.229 c -0.164,0 -0.328,-0.025 -0.487,-0.073 -0.878,-0.27 -1.372,-1.202 -1.104,-2.079 0.081,-0.264 0.361,-0.413 0.625,-0.332 0.264,0.081 0.413,0.36 0.332,0.625 -0.107,0.35 0.09,0.722 0.439,0.829 0.357,0.109 0.724,-0.097 0.829,-0.44 0.017,-0.054 1.707,-5.435 4.801,-4.609 0.267,0.071 0.425,0.346 0.354,0.612 -0.071,0.267 -0.344,0.426 -0.612,0.353 -2.103,-0.56 -3.572,3.895 -3.587,3.94 -0.217,0.702 -0.855,1.174 -1.59,1.174 z"
   id="path225" />
			</g>
			<g
   id="g227">
				<path
   style="fill:#ffffff"
   d="m 101.96,331.7 c 0,0.377 -0.306,0.683 -0.683,0.683 -0.377,0 -0.683,-0.306 -0.683,-0.683 0,-0.377 0.306,-0.683 0.683,-0.683 0.377,0 0.683,0.306 0.683,0.683 z"
   id="path226" />
			</g>
			<g
   id="g228">
				<path
   style="fill:#ffffff"
   d="m 119.681,331.7 c 0,0.377 -0.306,0.683 -0.683,0.683 -0.377,0 -0.683,-0.306 -0.683,-0.683 0,-0.377 0.306,-0.683 0.683,-0.683 0.377,0 0.683,0.306 0.683,0.683 z"
   id="path227" />
			</g>
		</g>
	</g></svg>
