<?xml version="1.0" encoding="UTF-8" standalone="no"?>
<!-- Generator: Adobe Illustrator 27.5.0, SVG Export Plug-In . SVG Version: 6.00 Build 0)  -->

<svg
   version="1.1"
   x="0px"
   y="0px"
   viewBox="0 0 128 128"
   xml:space="preserve"
   id="svg164"
   sodipodi:docname="egg.svg"
   width="128"
   height="128"
   inkscape:version="1.3.2 (091e20e, 2023-11-25)"
   xmlns:inkscape="http://www.inkscape.org/namespaces/inkscape"
   xmlns:sodipodi="http://sodipodi.sourceforge.net/DTD/sodipodi-0.dtd"
   xmlns="http://www.w3.org/2000/svg"
   xmlns:svg="http://www.w3.org/2000/svg"><defs
   id="defs164" /><sodipodi:namedview
   id="namedview164"
   pagecolor="#ffffff"
   bordercolor="#000000"
   borderopacity="0.25"
   inkscape:showpageshadow="2"
   inkscape:pageopacity="0.0"
   inkscape:pagecheckerboard="0"
   inkscape:deskcolor="#d1d1d1"
   showborder="false"
   inkscape:zoom="0.472"
   inkscape:cx="248.94068"
   inkscape:cy="248.94068"
   inkscape:window-width="1440"
   inkscape:window-height="762"
   inkscape:window-x="0"
   inkscape:window-y="158"
   inkscape:window-maximized="1"
   inkscape:current-layer="svg164" />



<g
   id="g157"
   transform="matrix(1.2826022,0,0,1.2826022,-77.170828,-382.77084)">
		<g
   id="g148">
			<g
   id="g146">
				
					<circle
   transform="matrix(0.7071,-0.7071,0.7071,0.7071,-215.7051,180.5323)"
   style="fill:#eae8ff"
   cx="110.069"
   cy="350.64499"
   id="ellipse145"
   r="47.587002" />
			</g>
			<g
   id="g147">
				
					<circle
   transform="matrix(0.7071,-0.7071,0.7071,0.7071,-212.4351,179.1779)"
   style="fill:#b2e08d"
   cx="110.069"
   cy="346.021"
   id="ellipse146"
   r="47.587002" />
			</g>
		</g>
		<g
   id="g156">
			<g
   id="g149">
				<path
   style="fill:#ffffff"
   d="m 130.313,337.954 c -1.218,-6.581 -6.651,-11.754 -13.287,-12.625 -2.984,-0.392 -5.824,0.064 -8.325,1.155 -3.011,1.314 -6.231,2.006 -9.516,2.022 -1.25,0.006 -2.536,0.166 -3.848,0.505 -6.275,1.62 -11.001,7.076 -11.653,13.524 -0.735,7.272 3.51,13.65 9.734,16.153 2.854,1.148 5.235,3.178 7.222,5.527 3.478,4.113 8.905,6.524 14.86,5.799 6.819,-0.83 12.496,-5.931 14.133,-12.602 0.431,-1.755 0.563,-3.466 0.449,-5.109 -0.21,-3.055 -0.135,-6.11 0.325,-9.137 0.252,-1.661 0.239,-3.411 -0.094,-5.212 z"
   id="path148" />
			</g>
			<g
   id="g150">
				<path
   style="fill:#47124e"
   d="m 130.407,343.668 c -0.025,0 -0.05,-0.002 -0.076,-0.006 -0.273,-0.041 -0.46,-0.296 -0.419,-0.569 0.252,-1.66 0.221,-3.358 -0.091,-5.048 -0.05,-0.271 0.129,-0.532 0.401,-0.582 0.27,-0.05 0.532,0.128 0.583,0.4 0.333,1.799 0.365,3.609 0.096,5.38 -0.038,0.247 -0.251,0.425 -0.494,0.425 z"
   id="path149" />
			</g>
			<g
   id="g151">
				<path
   style="fill:#47124e"
   d="m 113.432,370.642 c -5.063,0 -9.873,-2.197 -13.174,-6.102 -2.177,-2.575 -4.541,-4.388 -7.026,-5.387 -6.742,-2.711 -10.778,-9.409 -10.045,-16.667 0.028,-0.274 0.271,-0.478 0.548,-0.447 0.275,0.027 0.475,0.272 0.447,0.547 -0.688,6.812 3.099,13.096 9.423,15.64 2.638,1.061 5.133,2.968 7.416,5.668 3.543,4.19 8.933,6.294 14.418,5.626 0.278,-0.034 0.524,0.161 0.557,0.436 0.034,0.274 -0.162,0.523 -0.436,0.557 -0.712,0.086 -1.423,0.129 -2.128,0.129 z"
   id="path150" />
			</g>
			<g
   id="g155">
				<g
   id="g152">
					
						<circle
   transform="matrix(0.2298,-0.9732,0.9732,0.2298,-242.584,374.567)"
   style="fill:#ffe25e"
   cx="115.351"
   cy="340.54199"
   id="ellipse151"
   r="8.2589998" />
				</g>
				<g
   id="g153">
					<path
   style="fill:#ffffff"
   d="m 121.61,341.042 c -0.276,0 -0.5,-0.224 -0.5,-0.5 0,-3.176 -2.584,-5.759 -5.759,-5.759 -0.276,0 -0.5,-0.224 -0.5,-0.5 0,-0.276 0.224,-0.5 0.5,-0.5 3.727,0 6.759,3.032 6.759,6.759 0,0.276 -0.224,0.5 -0.5,0.5 z"
   id="path152" />
				</g>
				<g
   id="g154">
					<path
   style="fill:#47124e"
   d="m 115.351,349.302 c -4.83,0 -8.759,-3.93 -8.759,-8.76 0,-0.276 0.224,-0.5 0.5,-0.5 0.276,0 0.5,0.224 0.5,0.5 0,4.278 3.481,7.76 7.759,7.76 0.276,0 0.5,0.224 0.5,0.5 0,0.276 -0.224,0.5 -0.5,0.5 z"
   id="path153" />
				</g>
			</g>
		</g>
	</g></svg>
