<?xml version="1.0" encoding="UTF-8" standalone="no"?>
<!-- Generator: Adobe Illustrator 19.0.0, SVG Export Plug-In . SVG Version: 6.00 Build 0)  -->

<svg
   version="1.1"
   id="Layer_1"
   x="0px"
   y="0px"
   viewBox="0 0 128 128"
   xml:space="preserve"
   sodipodi:docname="jelly_403661.svg"
   width="128"
   height="128"
   inkscape:version="1.3.2 (091e20e, 2023-11-25)"
   xmlns:inkscape="http://www.inkscape.org/namespaces/inkscape"
   xmlns:sodipodi="http://sodipodi.sourceforge.net/DTD/sodipodi-0.dtd"
   xmlns="http://www.w3.org/2000/svg"
   xmlns:svg="http://www.w3.org/2000/svg"><defs
   id="defs27" /><sodipodi:namedview
   id="namedview27"
   pagecolor="#ffffff"
   bordercolor="#000000"
   borderopacity="0.25"
   inkscape:showpageshadow="false"
   inkscape:pageopacity="0.0"
   inkscape:pagecheckerboard="0"
   inkscape:deskcolor="#d1d1d1"
   showborder="false"
   borderlayer="false"
   showguides="true"
   inkscape:zoom="0.4609375"
   inkscape:cx="254.91525"
   inkscape:cy="-60.745763"
   inkscape:window-width="1312"
   inkscape:window-height="449"
   inkscape:window-x="0"
   inkscape:window-y="158"
   inkscape:window-maximized="0"
   inkscape:current-layer="Layer_1" />
<path
   style="fill:#9c11a9;stroke-width:0.25"
   d="M 127.75625,58.4335 C 124.935,25.69425 97.47025,0 64,0 28.654,0 0,28.654 0,64 c 0,28.991 19.27825,53.47525 45.71325,61.344 z"
   id="path1" />
<path
   style="fill:#6e259b;stroke-width:0.25"
   d="m 128,64 c 0,-1.87575 -0.0855,-3.73175 -0.24375,-5.5665 l -36.82,-36.82 -66.70775,69.53625 -10.3155,3.59775 31.8,30.59675 C 51.508,127.06925 57.64475,128 64,128 c 35.346,0 64,-28.654 64,-64 z"
   id="path2" />
<path
   style="fill:#f72e12;stroke-width:0.25"
   d="M 106.25675,91.96475 94.39425,28.1675 c -1.081,-5.81575 -6.178,-10.22025 -12.30725,-10.22025 -6.9155,0 -12.52175,5.606 -12.52175,12.52175 v 61.49575 z"
   id="path3" />
<g
   id="g5"
   transform="scale(0.25)">
	<path
   style="fill:#f8513a"
   d="M 402.384,367.859 355.691,116.74 c -2.444,-13.147 -13.943,-22.689 -27.343,-22.689 -15.343,0 -27.826,12.483 -27.826,27.826 V 367.86 h 101.862 z"
   id="path4" />
	<path
   style="fill:#f8513a"
   d="M 233.739,367.859 V 121.876 c 0,-27.662 -22.424,-50.087 -50.087,-50.087 -24.516,0 -44.905,17.618 -49.229,40.881 L 86.974,367.859 Z"
   id="path5" />
</g>
<path
   style="fill:#fa7461;stroke-width:0.25"
   d="M 52.8695,91.96475 V 30.469 c 0,-3.83575 -3.12075,-6.9565 -6.9565,-6.9565 -3.35,0 -6.22475,2.3855 -6.8355,5.67275 L 27.404,91.96475 Z"
   id="path6" />
<rect
   x="34.891251"
   y="78.052254"
   style="fill:#f8513a;stroke-width:0.25"
   width="5.5652499"
   height="5.5652499"
   id="rect6" />
<g
   id="g7"
   transform="scale(0.25)">
	<rect
   x="341.64899"
   y="256.55701"
   style="fill:#f72e12"
   width="22.261"
   height="22.261"
   id="rect7" />
	<path
   style="fill:#f72e12"
   d="M 305.893,95.35 C 303.727,69.687 282.224,49.528 256,49.528 l -22.261,340.591 h 97.477 z"
   id="path7" />
</g>
<g
   id="g9"
   transform="scale(0.25)">
	<path
   style="fill:#f8513a"
   d="M 206.107,95.35 180.784,390.12 H 256 V 49.528 c -26.224,0 -47.727,20.159 -49.893,45.822 z"
   id="path8" />
	<path
   style="fill:#f8513a"
   d="M 283.713,97.223 C 282.508,82.961 270.336,71.789 256,71.789 l -22.261,296.07 h 73.222 z"
   id="path9" />
</g>
<path
   style="fill:#fa7461;stroke-width:0.25"
   d="M 57.0715,24.314 51.25975,91.96475 H 64 v -74.0175 c -3.584,0 -6.62675,2.793 -6.9285,6.36675 z"
   id="path10" />
<polygon
   style="fill:#ffe376"
   points="234.296,373.424 422.957,378.989 400.696,417.946 256,417.946 "
   id="polygon10"
   transform="scale(0.25)" />
<g
   id="g12"
   transform="scale(0.25)">
	<polygon
   style="fill:#fff3ad"
   points="89.043,378.989 111.304,417.946 256,417.946 256,367.859 "
   id="polygon11" />
	<polygon
   style="fill:#fff3ad"
   points="256,378.989 245.009,367.859 256,356.728 456.348,356.728 456.348,378.989 "
   id="polygon12" />
</g>
<rect
   x="13.913"
   y="89.182503"
   style="fill:#ffffff;stroke-width:0.25"
   width="50.087002"
   height="5.5652499"
   id="rect12" />
<g
   id="g13">
</g>
<g
   id="g14">
</g>
<g
   id="g15">
</g>
<g
   id="g16">
</g>
<g
   id="g17">
</g>
<g
   id="g18">
</g>
<g
   id="g19">
</g>
<g
   id="g20">
</g>
<g
   id="g21">
</g>
<g
   id="g22">
</g>
<g
   id="g23">
</g>
<g
   id="g24">
</g>
<g
   id="g25">
</g>
<g
   id="g26">
</g>
<g
   id="g27">
</g>
</svg>
