<?xml version="1.0" encoding="UTF-8" standalone="no"?>
<!-- Generator: Adobe Illustrator 27.5.0, SVG Export Plug-In . SVG Version: 6.00 Build 0)  -->

<svg
   version="1.1"
   x="0px"
   y="0px"
   viewBox="0 0 128 128"
   xml:space="preserve"
   id="svg260"
   sodipodi:docname="milk.svg"
   width="128"
   height="128"
   inkscape:version="1.3.2 (091e20e, 2023-11-25)"
   xmlns:inkscape="http://www.inkscape.org/namespaces/inkscape"
   xmlns:sodipodi="http://sodipodi.sourceforge.net/DTD/sodipodi-0.dtd"
   xmlns="http://www.w3.org/2000/svg"
   xmlns:svg="http://www.w3.org/2000/svg"><defs
   id="defs260" /><sodipodi:namedview
   id="namedview260"
   pagecolor="#ffffff"
   bordercolor="#000000"
   borderopacity="0.25"
   inkscape:showpageshadow="false"
   inkscape:pageopacity="0.0"
   inkscape:pagecheckerboard="0"
   inkscape:deskcolor="#d1d1d1"
   showborder="false"
   borderlayer="false"
   inkscape:zoom="0.472"
   inkscape:cx="248.94068"
   inkscape:cy="248.94068"
   inkscape:window-width="1440"
   inkscape:window-height="762"
   inkscape:window-x="0"
   inkscape:window-y="158"
   inkscape:window-maximized="1"
   inkscape:current-layer="svg260" />



<g
   id="g76"
   transform="matrix(1.281897,0,0,1.281897,-77.094804,-189.50028)">
		<g
   id="g41">
			<g
   id="g38">
				<g
   id="g37">
					
						<circle
   transform="matrix(0.7071,-0.7071,0.7071,0.7071,-109.2489,136.4368)"
   style="fill:#eae8ff"
   cx="110.069"
   cy="200.09399"
   id="ellipse36"
   r="47.587002" />
				</g>
			</g>
			<g
   id="g40">
				<g
   id="g39">
					
						<circle
   transform="matrix(0.7071,-0.7071,0.7071,0.7071,-105.9407,135.0664)"
   style="fill:#83c0f2"
   cx="110.069"
   cy="195.41499"
   id="ellipse38"
   r="47.587002" />
				</g>
			</g>
		</g>
		<g
   id="g75">
			<g
   id="g57">
				<g
   id="g43">
					<g
   id="g42">
						<rect
   x="97.219002"
   y="166.045"
   style="fill:#ffffff"
   width="25.700001"
   height="8.967"
   id="rect41" />
					</g>
				</g>
				<g
   id="g45">
					<g
   id="g44">
						<rect
   x="90.268997"
   y="181.96201"
   style="fill:#ffffff"
   width="39.599998"
   height="42.882"
   id="rect43" />
					</g>
				</g>
				<g
   id="g47">
					<g
   id="g46">
						<polygon
   style="fill:#de5463"
   points="90.269,181.962 97.219,175.012 122.919,175.012 129.869,181.962 "
   id="polygon45" />
					</g>
				</g>
				<g
   id="g54">
					<g
   id="g49">
						<g
   id="g48">
							<path
   style="fill:#47124e"
   d="m 112.326,167.398 c -0.106,0 -0.213,-0.034 -0.304,-0.103 l -1.191,-0.912 c -0.219,-0.168 -0.261,-0.482 -0.093,-0.701 0.168,-0.218 0.482,-0.261 0.701,-0.093 l 1.191,0.912 c 0.219,0.168 0.261,0.482 0.093,0.701 -0.099,0.129 -0.247,0.196 -0.397,0.196 z"
   id="path47" />
						</g>
					</g>
					<g
   id="g51">
						<g
   id="g50">
							<path
   style="fill:#47124e"
   d="m 119.786,173.112 c -0.106,0 -0.213,-0.034 -0.304,-0.103 l -1.865,-1.429 c -0.219,-0.168 -0.261,-0.482 -0.093,-0.701 0.169,-0.219 0.481,-0.26 0.701,-0.093 l 1.865,1.429 c 0.219,0.168 0.261,0.482 0.093,0.701 -0.098,0.129 -0.246,0.196 -0.397,0.196 z m -3.73,-2.857 c -0.106,0 -0.213,-0.034 -0.304,-0.103 l -1.865,-1.429 c -0.219,-0.168 -0.261,-0.482 -0.093,-0.701 0.168,-0.218 0.482,-0.259 0.701,-0.093 l 1.865,1.429 c 0.219,0.168 0.261,0.482 0.093,0.701 -0.098,0.129 -0.247,0.196 -0.397,0.196 z"
   id="path49" />
						</g>
					</g>
					<g
   id="g53">
						<g
   id="g52">
							<path
   style="fill:#47124e"
   d="m 122.842,175.453 c -0.106,0 -0.213,-0.034 -0.304,-0.103 l -1.191,-0.912 c -0.219,-0.168 -0.261,-0.482 -0.093,-0.701 0.169,-0.218 0.482,-0.26 0.701,-0.093 l 1.191,0.912 c 0.219,0.168 0.261,0.482 0.093,0.701 -0.098,0.129 -0.247,0.196 -0.397,0.196 z"
   id="path51" />
						</g>
					</g>
				</g>
				<g
   style="opacity:0.15"
   id="g56">
					<g
   id="g55">
						<path
   style="fill:#47124e"
   d="m 110.503,166.045 v 9.132 l -5.577,7.074 c 0,0 -1.449,42.594 19.969,42.594 H 90.269 v -42.882 l 6.95,-6.95 v -8.967 h 13.284 z"
   id="path54" />
					</g>
				</g>
			</g>
			<g
   id="g65">
				<g
   id="g58">
					<path
   style="fill:#47124e"
   d="m 97.219,175.512 c -0.276,0 -0.5,-0.224 -0.5,-0.5 v -8.967 c 0,-0.276 0.224,-0.5 0.5,-0.5 0.276,0 0.5,0.224 0.5,0.5 v 8.967 c 0,0.276 -0.223,0.5 -0.5,0.5 z"
   id="path57" />
				</g>
				<g
   id="g59">
					<path
   style="fill:#47124e"
   d="m 129.869,225.344 h -7.857 c -0.276,0 -0.5,-0.224 -0.5,-0.5 0,-0.276 0.224,-0.5 0.5,-0.5 h 7.357 v -42.175 l -6.803,-6.804 c -0.195,-0.195 -0.195,-0.512 0,-0.707 0.195,-0.195 0.512,-0.195 0.707,0 l 6.95,6.95 c 0.094,0.094 0.146,0.221 0.146,0.354 v 42.882 c 0,0.277 -0.224,0.5 -0.5,0.5 z"
   id="path58" />
				</g>
				<g
   id="g60">
					<path
   style="fill:#47124e"
   d="M 100.887,225.344 H 90.269 c -0.276,0 -0.5,-0.224 -0.5,-0.5 V 204.11 c 0,-0.276 0.224,-0.5 0.5,-0.5 0.276,0 0.5,0.224 0.5,0.5 v 20.234 h 10.118 c 0.276,0 0.5,0.224 0.5,0.5 0,0.277 -0.223,0.5 -0.5,0.5 z"
   id="path59" />
				</g>
				<g
   id="g61">
					<path
   style="fill:#47124e"
   d="m 90.269,182.462 c -0.128,0 -0.256,-0.049 -0.354,-0.146 -0.195,-0.195 -0.195,-0.512 0,-0.707 l 6.95,-6.95 c 0.195,-0.195 0.512,-0.195 0.707,0 0.195,0.195 0.195,0.512 0,0.707 l -6.95,6.95 c -0.097,0.097 -0.225,0.146 -0.353,0.146 z"
   id="path60" />
				</g>
				<g
   id="g62">
					<path
   style="fill:none;stroke:#2a3552;stroke-width:3;stroke-linecap:round;stroke-linejoin:round;stroke-miterlimit:10"
   d="M 97.219,175.012"
   id="path61" />
				</g>
				<g
   id="g63">
					<path
   style="fill:#47124e"
   d="M 110.785,182.462 H 90.95 c -0.276,0 -0.5,-0.224 -0.5,-0.5 0,-0.276 0.224,-0.5 0.5,-0.5 h 19.835 c 0.276,0 0.5,0.224 0.5,0.5 0,0.276 -0.224,0.5 -0.5,0.5 z"
   id="path62" />
				</g>
				<g
   id="g64">
					<path
   style="fill:#47124e"
   d="m 129.869,182.462 h -7.857 c -0.276,0 -0.5,-0.224 -0.5,-0.5 0,-0.276 0.224,-0.5 0.5,-0.5 h 7.857 c 0.276,0 0.5,0.224 0.5,0.5 0,0.276 -0.224,0.5 -0.5,0.5 z"
   id="path63" />
				</g>
			</g>
			<g
   id="g73">
				<g
   id="g72">
					<g
   id="g66">
						<path
   style="fill:#695c5f"
   d="m 115.273,196.124 c 0,0 -2.264,0.755 -2.264,2.215 l 2.349,1.505 c 0,0 1.142,-2.493 -0.085,-3.72 z"
   id="path65" />
					</g>
					<g
   id="g67">
						<path
   style="fill:#ffffff"
   d="m 110.069,197.858 c -6.59,0 -9.143,7.294 -9.143,12.812 0,5.54 4.334,7.252 9.143,7.252 5.049,0 9.143,-1.711 9.143,-7.252 0,-5.518 -2.62,-12.812 -9.143,-12.812 z"
   id="path66" />
					</g>
					<g
   id="g68">
						<path
   style="fill:#695c5f"
   d="m 104.865,196.124 c 0,0 2.264,0.755 2.264,2.215 l -2.349,1.505 c 0,0 -1.142,-2.493 0.085,-3.72 z"
   id="path67" />
					</g>
					<g
   id="g69">
						<path
   style="fill:#606060"
   d="m 121.084,199.229 c -4.385,0 -5.114,1.393 -5.114,1.393 l 0.001,10e-4 c -0.621,-0.723 -1.336,-1.341 -2.156,-1.806 -0.485,0.872 -0.763,1.875 -0.763,2.944 0,3.309 2.647,5.994 5.939,6.066 -0.184,-1.192 -0.484,-2.395 -0.913,-3.534 2.338,0 2.952,-2.641 3.006,-5.064 z"
   id="path68" />
					</g>
					<g
   id="g70">
						<path
   style="fill:#606060"
   d="m 99.054,199.229 c 4.385,0 5.114,1.393 5.114,1.393 v 10e-4 c 0.621,-0.723 1.336,-1.341 2.156,-1.806 0.485,0.872 0.763,1.875 0.763,2.944 0,3.309 -2.647,5.994 -5.939,6.066 0.183,-1.192 0.484,-2.395 0.913,-3.534 -2.339,0 -2.953,-2.641 -3.007,-5.064 z"
   id="path69" />
					</g>
					<g
   id="g71">
						<path
   style="fill:#eeba8d"
   d="m 100.926,210.67 c 0,5.54 4.334,7.252 9.143,7.252 5.049,0 9.143,-1.711 9.143,-7.252 0,-4.179 -18.286,-4.324 -18.286,0 z"
   id="path70" />
					</g>
				</g>
			</g>
			<g
   id="g74">
				<path
   style="fill:#47124e"
   d="m 110.069,218.421 c -6.218,0 -9.643,-2.753 -9.643,-7.751 0,-0.276 0.224,-0.5 0.5,-0.5 0.276,0 0.5,0.224 0.5,0.5 0,5.58 4.7,6.751 8.643,6.751 5.816,0 8.643,-2.208 8.643,-6.751 0,-0.276 0.224,-0.5 0.5,-0.5 0.276,0 0.5,0.224 0.5,0.5 0,5.071 -3.334,7.751 -9.643,7.751 z"
   id="path73" />
			</g>
		</g>
	</g></svg>
