<?xml version="1.0" encoding="UTF-8" standalone="no"?>
<!-- Generator: Adobe Illustrator 27.5.0, SVG Export Plug-In . SVG Version: 6.00 Build 0)  -->

<svg
   version="1.1"
   x="0px"
   y="0px"
   viewBox="0 0 128 128"
   xml:space="preserve"
   id="svg170"
   sodipodi:docname="milk.svg"
   inkscape:version="1.3.2 (091e20e, 2023-11-25)"
   width="128"
   height="128"
   xmlns:inkscape="http://www.inkscape.org/namespaces/inkscape"
   xmlns:sodipodi="http://sodipodi.sourceforge.net/DTD/sodipodi-0.dtd"
   xmlns="http://www.w3.org/2000/svg"
   xmlns:svg="http://www.w3.org/2000/svg"><defs
   id="defs170" /><sodipodi:namedview
   id="namedview170"
   pagecolor="#ffffff"
   bordercolor="#000000"
   borderopacity="0.25"
   inkscape:showpageshadow="false"
   inkscape:pageopacity="0.0"
   inkscape:pagecheckerboard="0"
   inkscape:deskcolor="#d1d1d1"
   inkscape:zoom="1.098"
   inkscape:cx="250"
   inkscape:cy="155.28233"
   inkscape:window-width="1440"
   inkscape:window-height="762"
   inkscape:window-x="0"
   inkscape:window-y="158"
   inkscape:window-maximized="1"
   inkscape:current-layer="svg170"
   showborder="false"
   borderlayer="false" />



<g
   id="g66"
   transform="matrix(1.1514215,0,0,1.1514215,-49.002796,-216.21837)">
		<path
   style="fill:#99cbe6"
   d="m 95.403,188.532 c 8.252,0.13 16.144,1.765 23.78,4.651 3.369,1.273 6.52,3.008 9.41,5.151 2.65,1.965 5.285,3.972 7.746,6.164 7.416,6.604 12.422,14.786 15.363,24.237 0.898,2.884 1.331,5.877 1.569,8.885 0.204,2.573 0.358,5.154 0.435,7.734 0.24,8.123 -1.759,15.784 -4.954,23.171 -2.005,4.636 -4.691,8.864 -7.81,12.84 -3.629,4.625 -8.155,8.028 -13.51,10.388 -3.758,1.656 -7.653,2.823 -11.71,3.463 -4.246,0.669 -8.479,1.427 -12.734,2.031 -5.049,0.717 -10.132,1.149 -15.235,0.87 -5.804,-0.318 -11.59,-0.813 -17.101,-2.897 -7.999,-3.025 -14.575,-7.926 -19.605,-14.866 -1.997,-2.755 -3.424,-5.805 -4.558,-8.993 -1.614,-4.539 -2.904,-9.17 -3.452,-13.966 -0.424,-3.708 -0.68,-7.437 -0.275,-11.17 0.371,-3.423 0.74,-6.847 1.188,-10.26 0.612,-4.658 2.293,-9.024 3.81,-13.43 1.313,-3.812 3.083,-7.421 5.172,-10.857 0.889,-1.461 2.024,-2.784 3.134,-4.095 1.53,-1.808 3.148,-3.541 4.72,-5.313 3.051,-3.439 6.766,-5.966 10.89,-7.926 4.608,-2.19 9.36,-3.949 14.383,-4.963 3.114,-0.631 6.261,-0.709 9.344,-0.849 z"
   id="path58" />
		<g
   id="g65">
			<path
   style="fill:#ffffff"
   d="m 111.715,280.875 c -5.536,1.479 -11.175,2.206 -16.919,1.794 -2.563,-0.185 -5.1,-0.582 -7.61,-1.144 -0.816,-0.183 -1.641,-0.339 -2.449,-0.553 -1.616,-0.428 -2.959,-1.275 -3.952,-2.654 -0.57,-0.793 -0.894,-1.653 -1.019,-2.622 -0.399,-3.108 -0.539,-6.227 -0.583,-9.36 -0.051,-3.407 -0.279,-6.812 -0.353,-10.219 -0.068,-3.187 -0.08,-6.375 -0.031,-9.562 0.034,-2.232 0.159,-4.468 0.345,-6.692 0.239,-2.843 0.767,-5.642 1.507,-8.401 0.411,-1.53 1.078,-2.943 1.904,-4.274 0.974,-1.566 2.006,-3.097 3.051,-4.617 1.472,-2.141 2.582,-4.444 3.177,-6.977 0.175,-0.747 0.44,-1.49 0.185,-2.295 -0.095,-0.299 -0.025,-0.668 0.034,-0.995 0.219,-1.225 0.203,-2.446 -0.025,-3.804 -0.252,-0.212 -0.479,-0.376 -0.673,-0.57 -0.551,-0.553 -0.608,-0.999 -0.246,-1.644 0.346,-0.617 0.873,-1.011 1.53,-1.233 1.379,-0.463 2.786,-0.853 4.24,-0.947 2.846,-0.183 5.702,-0.239 8.542,0.026 1.321,0.123 2.617,0.53 3.915,0.845 0.316,0.077 0.614,0.274 0.884,0.465 0.523,0.371 0.898,0.87 0.919,1.527 0.02,0.568 -0.4,0.89 -0.827,1.181 -0.088,0.06 -0.146,0.163 -0.219,0.248 -0.266,1.152 -0.319,2.309 -0.109,3.479 0.06,0.328 0.103,0.673 0.071,1.002 -0.234,2.388 0.65,4.506 1.649,6.569 0.557,1.152 1.298,2.217 1.986,3.301 0.42,0.66 0.884,1.293 1.349,1.923 2.303,3.116 3.735,6.587 4.366,10.411 0.582,3.533 0.944,7.077 1.087,10.661 0.183,4.591 -0.048,9.171 -0.091,13.754 -0.038,4.08 -0.166,8.159 -0.314,12.236 -0.049,1.392 -0.189,2.794 -0.44,4.164 -0.498,2.726 -2.343,4.299 -4.881,4.977 z"
   id="path59" />
			<g
   id="g64">
				<path
   style="fill:#2a2a2a"
   d="m 117.442,245.745 c -0.143,-3.584 -0.505,-7.128 -1.087,-10.661 -0.631,-3.824 -2.063,-7.296 -4.366,-10.411 -0.465,-0.63 -0.928,-1.262 -1.349,-1.923 -0.688,-1.084 -1.429,-2.149 -1.986,-3.301 -0.999,-2.063 -1.883,-4.181 -1.649,-6.569 0.032,-0.329 -0.011,-0.674 -0.071,-1.002 -0.209,-1.17 -0.157,-2.328 0.109,-3.479 0.072,-0.085 0.131,-0.188 0.219,-0.248 0.426,-0.291 0.847,-0.613 0.827,-1.181 -0.022,-0.657 -0.396,-1.156 -0.919,-1.527 -0.269,-0.191 -0.568,-0.388 -0.884,-0.465 -1.298,-0.316 -2.594,-0.722 -3.915,-0.845 -2.84,-0.265 -5.696,-0.209 -8.542,-0.026 -1.453,0.094 -2.86,0.483 -4.24,0.947 -0.657,0.222 -1.184,0.616 -1.53,1.233 -0.362,0.645 -0.305,1.091 0.246,1.644 0.194,0.194 0.42,0.357 0.673,0.57 0.228,1.358 0.243,2.579 0.025,3.804 -0.058,0.326 -0.129,0.696 -0.034,0.995 0.256,0.805 -0.009,1.549 -0.185,2.295 -0.596,2.532 -1.706,4.835 -3.177,6.977 -1.045,1.519 -2.077,3.051 -3.051,4.617 -0.827,1.33 -1.493,2.743 -1.904,4.274 -0.74,2.759 -1.269,5.557 -1.507,8.401 -0.186,2.225 -0.311,4.46 -0.345,6.692 -0.049,3.187 -0.037,6.375 0.031,9.562 0.074,3.407 0.302,6.812 0.353,10.219 0.045,3.133 0.185,6.252 0.583,9.36 0.125,0.968 0.45,1.829 1.019,2.622 0.993,1.379 2.335,2.226 3.952,2.654 0.808,0.214 1.633,0.37 2.449,0.553 2.509,0.562 5.046,0.959 7.61,1.144 5.744,0.413 11.383,-0.314 16.919,-1.794 2.537,-0.677 4.383,-2.251 4.882,-4.976 0.251,-1.37 0.391,-2.773 0.44,-4.164 0.148,-4.076 0.276,-8.156 0.314,-12.236 0.043,-4.584 0.273,-9.164 0.09,-13.755 z m -2.752,-8.191 c -0.108,-0.571 -0.186,-0.882 -0.222,-1.198 -0.071,-0.648 -0.117,-1.299 -0.171,-1.915 0.687,-0.289 0.901,0.154 1.09,0.543 0.428,0.875 0.31,1.348 -0.697,2.57 z M 88.571,206.973 c -0.037,-0.633 0.505,-0.994 1.033,-1.178 0.841,-0.291 1.71,-0.506 2.579,-0.704 0.653,-0.148 1.321,-0.283 1.986,-0.306 1.339,-0.048 2.683,-0.014 4.026,-0.014 2.466,-0.126 4.92,-0.032 7.305,0.679 0.473,0.142 0.953,0.343 1.352,0.627 0.753,0.533 0.694,1.144 -0.128,1.509 -0.506,0.225 -1.05,0.371 -1.587,0.516 -0.32,0.086 -0.66,0.114 -0.993,0.148 -1.777,0.182 -3.55,0.413 -5.33,0.511 -0.993,0.055 -1.998,-0.115 -2.999,-0.177 -1.004,-0.06 -2.015,-0.058 -3.011,-0.182 -1.045,-0.128 -2.084,-0.345 -3.114,-0.573 -0.485,-0.107 -1.082,-0.267 -1.119,-0.856 z m -7.708,27.011 c 0.471,-2.195 1.118,-4.332 2.349,-6.24 1.031,-1.595 2.074,-3.185 3.148,-4.752 1.698,-2.48 2.891,-5.165 3.361,-8.144 0.129,-0.824 0.135,-1.667 0.174,-2.502 0.051,-1.11 0.079,-2.221 0.119,-3.439 5.317,0.574 10.51,0.513 15.78,-0.031 0.277,0.901 0.269,1.841 0.237,2.771 -0.066,1.867 0.28,3.662 0.784,5.448 0.57,2.018 1.553,3.826 2.708,5.55 1.025,1.533 2.094,3.039 3.1,4.584 1.073,1.65 1.88,3.427 2.331,5.353 0.062,0.268 0.086,0.545 0.145,0.924 -0.334,-0.015 -0.596,-0.028 -0.934,-0.045 -0.149,-0.416 -0.306,-0.821 -0.442,-1.233 -0.814,-2.471 -1.969,-4.72 -3.853,-6.587 -1.312,-1.298 -2.411,-2.791 -3.205,-4.481 -0.117,-0.249 -0.277,-0.477 -0.573,-0.673 0.034,0.228 0.031,0.466 0.106,0.679 0.719,2.035 1.877,3.827 3.342,5.374 1.623,1.713 2.623,3.736 3.391,5.913 0.074,0.209 0.111,0.433 0.149,0.651 0.02,0.109 0.003,0.223 0.003,0.413 -0.745,0.1 -1.504,0.197 -2.261,0.306 -1.563,0.225 -3.048,0.707 -4.426,1.47 -2.169,1.204 -4.548,1.456 -6.951,1.613 -0.962,0.062 -1.895,-0.148 -2.791,-0.463 -1.158,-0.405 -2.298,-0.861 -3.431,-1.327 -1.606,-0.662 -3.259,-1.145 -4.954,-1.518 -1.444,-0.317 -2.871,-0.368 -4.317,-0.051 -0.263,0.057 -0.54,0.048 -1.027,0.086 0.673,-2.566 1.578,-4.769 3.254,-6.583 1.071,-1.156 1.958,-2.44 2.749,-3.795 0.56,-0.956 0.928,-1.983 1.058,-3.105 -0.191,0.328 -0.406,0.644 -0.567,0.985 -0.842,1.794 -2.003,3.371 -3.379,4.769 -2.034,2.061 -3.154,4.578 -3.878,7.317 -0.231,0.876 -0.211,0.881 -1.247,1.538 -0.024,-0.299 -0.1,-0.55 -0.052,-0.775 z m 32.943,4.16 c -0.958,0.534 -1.969,0.656 -2.943,0.811 -1.061,0.171 -2.063,0.476 -3.051,0.862 -2.345,0.916 -4.722,1.716 -7.237,2.012 -0.719,0.085 -1.441,0.199 -2.161,0.205 -2.068,0.015 -4.141,0.006 -6.184,-0.345 -3.485,-0.599 -6.778,-1.755 -9.888,-3.542 0.037,-1.155 0.12,-2.254 0.431,-3.355 1.695,-0.725 3.433,-0.63 5.134,-0.336 1.813,0.316 3.573,0.885 5.263,1.64 0.664,0.296 1.332,0.579 2.009,0.842 3.65,1.421 7.223,1.022 10.739,-0.486 0.616,-0.263 1.196,-0.61 1.804,-0.888 1.535,-0.704 3.137,-1.162 4.832,-1.247 0.214,-0.009 0.431,0.031 0.676,0.051 0.49,1.249 0.556,2.506 0.576,3.776 z M 80.785,236.23 c 0.115,-0.182 0.262,-0.353 0.422,-0.497 0.114,-0.103 0.276,-0.155 0.476,-0.263 0.143,0.765 -0.12,1.412 -0.263,2.098 -0.923,-0.504 -1.025,-0.725 -0.635,-1.338 z m 35.844,22.505 c -0.068,4.358 -0.169,8.716 -0.305,13.073 -0.04,1.282 -0.168,2.571 -0.394,3.833 -0.419,2.334 -1.966,3.721 -4.153,4.352 -1.766,0.509 -3.573,0.91 -5.385,1.218 -2.753,0.466 -5.525,0.794 -8.33,0.785 -2.802,-0.011 -5.573,-0.333 -8.327,-0.793 -1.539,-0.257 -3.064,-0.607 -4.591,-0.938 -0.998,-0.216 -1.909,-0.656 -2.697,-1.295 -1.122,-0.91 -1.821,-2.046 -2.004,-3.542 -0.353,-2.889 -0.494,-5.784 -0.525,-8.692 -0.034,-3.242 -0.018,-6.492 -0.24,-9.723 -0.226,-3.299 -0.16,-6.594 -0.151,-9.888 0.006,-2.343 0.206,-4.686 0.356,-7.028 0.042,-0.662 0.206,-1.316 0.334,-2.091 1.19,0.587 1.253,0.668 1.153,1.535 -0.45,3.889 -0.67,7.791 -0.633,11.706 0.037,3.747 0.046,7.494 0.119,11.241 0.023,1.168 0.211,2.334 0.343,3.499 0.022,0.188 0.154,0.363 0.262,0.605 0.142,-0.176 0.252,-0.246 0.252,-0.32 0.011,-0.727 0.029,-1.455 -0.006,-2.18 -0.059,-1.225 -0.22,-2.451 -0.225,-3.676 -0.014,-4.418 -0.038,-8.838 0.055,-13.255 0.055,-2.671 0.26,-5.345 0.676,-8.115 0.953,0.425 1.81,0.813 2.673,1.192 3.675,1.609 7.482,2.6 11.529,2.5 0.781,-0.02 1.561,0.046 2.342,0.035 2.657,-0.04 5.211,-0.648 7.665,-1.613 2.408,-0.948 4.902,-1.502 7.543,-1.98 0.128,0.953 0.279,1.875 0.373,2.805 0.627,6.189 0.442,12.4 0.473,18.604 0.005,1.116 -0.102,2.234 -0.128,3.351 -0.018,0.822 -0.094,1.65 0.151,2.746 0.397,-1.028 0.505,-1.827 0.554,-2.657 0.249,-4.135 0.125,-8.273 0.135,-12.41 0.011,-4.027 -0.211,-8.042 -0.713,-12.039 -0.111,-0.873 0.272,-1.349 1.045,-1.718 0.317,0.403 0.203,0.868 0.288,1.276 0.091,0.436 0.175,0.879 0.2,1.324 0.132,2.286 0.323,4.572 0.346,6.861 0.042,3.808 -10e-4,7.61 -0.06,11.412 z"
   id="path60" />
				<path
   style="fill:#2a2a2a"
   d="m 113.839,273.942 c -0.122,2.242 -1.354,3.534 -3.213,4.374 -2.42,1.093 -4.967,1.637 -7.59,1.859 -1.276,0.108 -2.562,0.11 -3.844,0.127 -0.442,0.006 -0.889,-0.067 -1.326,-0.142 -0.311,-0.054 -0.61,-0.172 -0.877,-0.453 0.587,-0.071 1.171,-0.171 1.76,-0.208 1.391,-0.087 2.785,-0.121 4.174,-0.217 2.631,-0.18 5.169,-0.782 7.6,-1.805 1.264,-0.533 2.333,-1.298 2.84,-2.662 0.115,-0.308 0.315,-0.583 0.476,-0.873 z"
   id="path61" />
				<path
   style="fill:#2a2a2a"
   d="m 104.924,216.26 c -0.788,-1.092 -0.699,-2.342 -0.859,-3.534 -0.091,-0.68 -0.195,-1.427 0.16,-2.118 0.138,0.076 0.283,0.114 0.287,0.164 0.145,1.829 0.278,3.659 0.412,5.488 z"
   id="path62" />
				<path
   style="fill:#2a2a2a"
   d="m 91.795,210.566 c 0.25,1.975 0.073,3.815 -0.543,5.652 -0.043,-0.289 -0.142,-0.582 -0.121,-0.867 0.111,-1.495 0.251,-2.988 0.392,-4.48 0.007,-0.076 0.123,-0.143 0.272,-0.305 z"
   id="path63" />
				<path
   style="fill:#2a2a2a"
   d="m 91.677,206.573 c 0.776,-0.378 1.632,-0.428 2.438,-0.661 0.781,-0.225 1.657,-0.137 2.493,-0.157 0.892,-0.022 1.785,-0.022 2.678,-0.008 0.836,0.013 1.722,-0.107 2.493,0.132 0.813,0.252 1.7,0.184 2.576,0.554 -1.044,0.6 -1.251,0.672 -2.053,0.74 -5.246,0.445 -8.417,0.31 -10.625,-0.6 z"
   id="path64" />
			</g>
		</g>
	</g></svg>
