<?xml version="1.0" encoding="UTF-8" standalone="no"?>
<!-- Generator: Adobe Illustrator 27.5.0, SVG Export Plug-In . SVG Version: 6.00 Build 0)  -->

<svg
   version="1.1"
   x="0px"
   y="0px"
   viewBox="0 0 128 128"
   xml:space="preserve"
   id="svg319"
   sodipodi:docname="peach.svg"
   width="128"
   height="128"
   inkscape:version="1.3.2 (091e20e, 2023-11-25)"
   xmlns:inkscape="http://www.inkscape.org/namespaces/inkscape"
   xmlns:sodipodi="http://sodipodi.sourceforge.net/DTD/sodipodi-0.dtd"
   xmlns="http://www.w3.org/2000/svg"
   xmlns:svg="http://www.w3.org/2000/svg"><defs
   id="defs319" /><sodipodi:namedview
   id="namedview319"
   pagecolor="#ffffff"
   bordercolor="#000000"
   borderopacity="0.25"
   inkscape:showpageshadow="false"
   inkscape:pageopacity="0.0"
   inkscape:pagecheckerboard="0"
   inkscape:deskcolor="#d1d1d1"
   showborder="false"
   borderlayer="false"
   inkscape:zoom="0.472"
   inkscape:cx="248.94068"
   inkscape:cy="248.94068"
   inkscape:window-width="1440"
   inkscape:window-height="762"
   inkscape:window-x="0"
   inkscape:window-y="158"
   inkscape:window-maximized="1"
   inkscape:current-layer="svg319" />



<g
   id="g161"
   transform="matrix(1.2728585,0,0,1.2728585,-432.33583,-378.89324)">
		<g
   id="g144">
			<g
   id="g142">
				
					<circle
   transform="matrix(0.7071,-0.7071,0.7071,0.7071,-133.7804,378.3159)"
   style="fill:#eae8ff"
   cx="389.77701"
   cy="350.64499"
   id="ellipse141"
   r="47.587002" />
			</g>
			<g
   id="g143">
				
					<circle
   transform="matrix(0.7071,-0.7071,0.7071,0.7071,-129.8344,376.9887)"
   style="fill:#928fe3"
   cx="390.14801"
   cy="345.21799"
   id="ellipse142"
   r="47.548" />
			</g>
		</g>
		<g
   id="g160">
			<g
   id="g149">
				<g
   id="g146">
					<g
   id="g145">
						<path
   style="fill:#ff8b3d"
   d="m 365.806,341.995 c 0,19.495 21.76,27.065 25.958,27.065 4.198,0 22.317,-11.053 22.317,-27.065 0,-13.036 -11.213,-16.6 -16.6,-16.6 -3.169,0 -7.538,1.812 -7.538,1.812 0,0 -2.166,-1.812 -7.538,-1.812 -5.372,0 -16.599,4.048 -16.599,16.6 z"
   id="path144" />
					</g>
				</g>
				<g
   style="opacity:0.15"
   id="g147">
					<path
   style="fill:#5d1566"
   d="m 409.113,329.869 c 2.586,2.883 -4.809,4.36 -7.026,4.463 0,0 0.518,7.046 -3.082,7.663 0,0 0,-10.337 -9.062,-14.788 0,0 3.795,-1.812 7.538,-1.812 3.743,0 9.605,2.214 11.632,4.474 z"
   id="path146" />
				</g>
				<g
   id="g148">
					<path
   style="fill:#ff973d"
   d="m 399.005,349.118 c -6.058,-0.081 -5.13,-13.208 -16.6,-13.118 -6.695,0.052 -19.287,5.52 -13.121,18.469 3.435,7.213 17.159,14.591 22.48,14.591 2.63,0 15.218,-6.121 20.47,-18.282 3.231,-7.481 -0.093,-10.347 -4.868,-8.783 -4.776,1.564 -3.351,7.19 -8.361,7.123 z"
   id="path147" />
				</g>
			</g>
			<g
   id="g154">
				<g
   id="g150">
					<path
   style="fill:#47124e"
   d="m 399.005,342.495 c -0.276,0 -0.5,-0.224 -0.5,-0.5 0,-8.877 -7.222,-16.1 -16.1,-16.1 -0.276,0 -0.5,-0.224 -0.5,-0.5 0,-0.276 0.224,-0.5 0.5,-0.5 9.429,0 17.1,7.671 17.1,17.1 0,0.276 -0.224,0.5 -0.5,0.5 z"
   id="path149" />
				</g>
				<g
   id="g151">
					<path
   style="fill:none;stroke:#47124e;stroke-linecap:round;stroke-linejoin:round;stroke-miterlimit:10"
   d="M 397.481,325.395"
   id="path150" />
				</g>
				<g
   id="g152">
					<path
   style="fill:#47124e"
   d="m 391.764,369.56 c -1.766,0 -6.471,-1.27 -11.401,-4.093 -0.24,-0.137 -0.323,-0.443 -0.186,-0.683 0.138,-0.239 0.441,-0.323 0.683,-0.186 4.771,2.732 9.249,3.961 10.904,3.961 1.111,0 3.697,-0.96 6.968,-3.104 0.231,-0.152 0.541,-0.087 0.692,0.144 0.151,0.231 0.087,0.54 -0.144,0.692 -3.028,1.986 -5.978,3.269 -7.516,3.269 z"
   id="path151" />
				</g>
				<g
   id="g153">
					<path
   style="fill:#47124e"
   d="m 390.562,327.239 c -0.01,0 -0.02,0 -0.03,-10e-4 -0.275,-0.016 -0.486,-0.253 -0.469,-0.529 l 0.033,-0.467 c 0.148,-1.993 0.425,-5.703 -2.587,-8.853 -0.191,-0.2 -0.184,-0.516 0.016,-0.707 0.2,-0.19 0.517,-0.184 0.707,0.016 3.32,3.471 3.01,7.623 2.861,9.619 l -0.032,0.452 c -0.016,0.265 -0.236,0.47 -0.499,0.47 z"
   id="path152" />
				</g>
			</g>
			<g
   id="g159">
				<g
   id="g156">
					<g
   id="g155">
						<path
   style="fill:#b2e08d"
   d="m 403.28,328.721 c -3.452,1.724 -10.54,1.767 -12.264,-1.685 -1.724,-3.452 2.569,-9.092 6.021,-10.816 6.251,-3.122 12.731,1.452 12.731,1.452 0,0 -0.237,7.927 -6.488,11.049 z"
   id="path154" />
					</g>
				</g>
				<g
   id="g157">
					<path
   style="fill:#47124e"
   d="m 397.729,330.378 c -3.058,0 -6.066,-0.928 -7.16,-3.119 -0.124,-0.247 -0.023,-0.547 0.224,-0.671 0.247,-0.123 0.548,-0.023 0.671,0.224 1.544,3.091 8.317,3.096 11.593,1.461 5.902,-2.948 6.209,-10.542 6.211,-10.618 0.009,-0.276 0.267,-0.482 0.515,-0.484 0.276,0.008 0.493,0.239 0.485,0.515 -0.01,0.336 -0.32,8.264 -6.764,11.482 -1.544,0.771 -3.672,1.21 -5.775,1.21 z"
   id="path156" />
				</g>
				<g
   id="g158">
					<path
   style="fill:#caff90"
   d="m 391.017,327.536 c -0.183,0 -0.36,-0.101 -0.447,-0.276 -0.124,-0.247 -0.024,-0.547 0.223,-0.671 l 11.071,-5.55 c 0.248,-0.124 0.548,-0.024 0.671,0.223 0.124,0.247 0.024,0.547 -0.223,0.671 l -11.071,5.55 c -0.073,0.036 -0.149,0.053 -0.224,0.053 z"
   id="path157" />
				</g>
			</g>
		</g>
	</g></svg>
