<?xml version="1.0" encoding="UTF-8" standalone="no"?>
<!-- Generator: Adobe Illustrator 27.5.0, SVG Export Plug-In . SVG Version: 6.00 Build 0)  -->

<svg
   version="1.1"
   x="0px"
   y="0px"
   viewBox="0 0 128 128"
   xml:space="preserve"
   id="svg180"
   sodipodi:docname="peanut.svg"
   width="128"
   height="128"
   inkscape:version="1.3.2 (091e20e, 2023-11-25)"
   xmlns:inkscape="http://www.inkscape.org/namespaces/inkscape"
   xmlns:sodipodi="http://sodipodi.sourceforge.net/DTD/sodipodi-0.dtd"
   xmlns="http://www.w3.org/2000/svg"
   xmlns:svg="http://www.w3.org/2000/svg"><defs
   id="defs180" /><sodipodi:namedview
   id="namedview180"
   pagecolor="#ffffff"
   bordercolor="#000000"
   borderopacity="0.25"
   inkscape:showpageshadow="false"
   inkscape:pageopacity="0.0"
   inkscape:pagecheckerboard="0"
   inkscape:deskcolor="#d1d1d1"
   showborder="false"
   borderlayer="false"
   inkscape:zoom="0.472"
   inkscape:cx="248.94068"
   inkscape:cy="250"
   inkscape:window-width="1312"
   inkscape:window-height="449"
   inkscape:window-x="0"
   inkscape:window-y="158"
   inkscape:window-maximized="0"
   inkscape:current-layer="svg180" />



<g
   id="g107"
   transform="matrix(1.277888,0,0,1.277888,-76.651716,-380.8935)">
		<g
   id="g78">
			<g
   id="g76">
				
					<circle
   transform="matrix(0.7071,-0.7071,0.7071,0.7071,-215.7051,180.5323)"
   style="fill:#eae8ff"
   cx="110.069"
   cy="350.64499"
   id="ellipse75"
   r="47.587002" />
			</g>
			<g
   id="g77">
				
					<circle
   transform="matrix(0.2298,-0.9732,0.9732,0.2298,-251.564,373.3139)"
   style="fill:#928fe3"
   cx="110.069"
   cy="345.58899"
   id="ellipse76"
   r="47.548" />
			</g>
		</g>
		<g
   id="g106">
			<g
   id="g92">
				<g
   id="g79">
					<path
   style="fill:#e3ab5d"
   d="m 115.924,342.597 c -1.169,3.648 -4.058,6.39 -7.784,7.278 -2.908,0.693 -5.752,2.236 -8.121,4.605 -6.132,6.132 -6.753,15.453 -1.387,20.819 5.366,5.366 14.687,4.745 20.819,-1.387 2.369,-2.37 3.912,-5.214 4.605,-8.122 0.888,-3.726 3.63,-6.615 7.278,-7.784 1.942,-0.622 3.857,-1.929 5.963,-4.034 6.132,-6.132 7.222,-14.984 2.434,-19.772 -4.788,-4.788 -13.64,-3.698 -19.772,2.434 -2.107,2.107 -3.413,4.021 -4.035,5.963 z"
   id="path78" />
				</g>
				<g
   id="g90">
					<g
   id="g80">
						<path
   style="fill:#ffc068"
   d="m 98.631,375.8 c -0.128,0 -0.256,-0.049 -0.354,-0.147 -1.992,-1.991 -0.239,-7.076 4.361,-12.654 0.175,-0.213 0.491,-0.243 0.704,-0.068 0.213,0.176 0.243,0.491 0.067,0.704 -4.122,4.998 -5.983,9.755 -4.426,11.311 0.195,0.195 0.195,0.512 0,0.707 -0.096,0.098 -0.224,0.147 -0.352,0.147 z"
   id="path79" />
					</g>
					<g
   id="g81">
						<path
   style="fill:#cc9343"
   d="m 109.616,372.203 c -0.15,0 -0.298,-0.067 -0.396,-0.195 -0.168,-0.219 -0.128,-0.533 0.091,-0.701 1.36,-1.049 2.707,-2.237 4.002,-3.532 2.265,-2.265 4.193,-4.678 5.577,-6.979 1.756,-2.92 4.591,-5.833 7.583,-7.793 1.514,-0.992 3.201,-2.436 5.309,-4.544 2.797,-2.797 5.126,-5.789 6.557,-8.423 0.132,-0.243 0.436,-0.332 0.678,-0.201 0.243,0.132 0.333,0.435 0.201,0.678 -1.476,2.716 -3.866,5.789 -6.729,8.653 -2.157,2.157 -3.894,3.642 -5.468,4.673 -2.872,1.882 -5.592,4.675 -7.274,7.473 -1.425,2.37 -3.405,4.85 -5.727,7.171 -1.325,1.325 -2.704,2.542 -4.099,3.617 -0.091,0.069 -0.199,0.103 -0.305,0.103 z"
   id="path80" />
					</g>
					<g
   id="g82">
						<path
   style="fill:#ffc068"
   d="m 140.805,349.717 c -0.206,0 -0.399,-0.128 -0.472,-0.333 -2.729,-7.732 -8.186,-13.19 -15.781,-15.785 -0.261,-0.089 -0.401,-0.374 -0.312,-0.635 0.089,-0.262 0.373,-0.399 0.635,-0.312 7.895,2.697 13.566,8.367 16.401,16.398 0.092,0.26 -0.045,0.546 -0.305,0.638 -0.054,0.019 -0.111,0.029 -0.166,0.029 z"
   id="path81" />
					</g>
					<g
   id="g83">
						<path
   style="fill:#cc9343"
   d="m 136.702,355.054 c -0.206,0 -0.398,-0.127 -0.471,-0.332 -2.775,-7.777 -8.667,-13.666 -17.041,-17.029 -0.256,-0.103 -0.38,-0.394 -0.277,-0.65 0.103,-0.256 0.395,-0.38 0.65,-0.277 8.647,3.474 14.736,9.567 17.609,17.621 0.093,0.26 -0.042,0.546 -0.303,0.639 -0.055,0.019 -0.112,0.028 -0.167,0.028 z"
   id="path82" />
					</g>
					<g
   id="g84">
						<path
   style="fill:#cc9343"
   d="m 114.267,377.802 c -0.061,0 -0.123,-0.011 -0.183,-0.035 -8.528,-3.347 -14.725,-9.546 -17.922,-17.925 -0.098,-0.258 0.031,-0.547 0.289,-0.645 0.256,-0.1 0.547,0.031 0.646,0.289 3.094,8.109 9.095,14.109 17.353,17.351 0.257,0.101 0.384,0.391 0.283,0.648 -0.078,0.197 -0.267,0.317 -0.466,0.317 z"
   id="path83" />
					</g>
					<g
   id="g85">
						<path
   style="fill:#ffc068"
   d="m 119.664,373.757 c -0.065,0 -0.131,-0.013 -0.195,-0.039 -8.965,-3.795 -15.624,-10.455 -19.257,-19.26 -0.105,-0.255 0.017,-0.548 0.271,-0.653 0.255,-0.102 0.548,0.016 0.653,0.272 3.531,8.557 10.005,15.03 18.722,18.721 0.254,0.107 0.373,0.401 0.266,0.655 -0.08,0.19 -0.266,0.304 -0.46,0.304 z"
   id="path84" />
					</g>
					<g
   id="g86">
						<path
   style="fill:#ffc068"
   d="m 125.749,362.349 c -0.099,0 -0.199,-0.029 -0.287,-0.09 -2.533,-1.776 -6.749,-6.71 -6.927,-6.919 -0.179,-0.21 -0.154,-0.526 0.056,-0.705 0.211,-0.18 0.526,-0.155 0.705,0.056 0.043,0.05 4.312,5.046 6.741,6.748 0.226,0.159 0.281,0.471 0.123,0.697 -0.098,0.138 -0.253,0.213 -0.411,0.213 z"
   id="path85" />
					</g>
					<g
   id="g87">
						<path
   style="fill:#ffc068"
   d="m 112.877,355.113 c -0.17,0 -0.335,-0.086 -0.429,-0.242 -0.142,-0.237 -0.065,-0.544 0.171,-0.686 2.798,-1.682 5.591,-4.401 7.473,-7.274 1.03,-1.573 2.515,-3.311 4.672,-5.468 2.916,-2.916 6.035,-5.33 8.783,-6.798 0.245,-0.129 0.547,-0.039 0.677,0.205 0.13,0.244 0.038,0.547 -0.205,0.677 -2.663,1.424 -5.699,3.776 -8.547,6.624 -2.107,2.108 -3.551,3.794 -4.543,5.309 -1.961,2.992 -4.874,5.827 -7.794,7.583 -0.081,0.047 -0.17,0.07 -0.258,0.07 z"
   id="path86" />
					</g>
					<g
   id="g88">
						<path
   style="fill:#47124e"
   d="m 142.222,346.089 c -0.042,0 -0.084,-0.005 -0.127,-0.016 -0.267,-0.07 -0.427,-0.343 -0.357,-0.61 1.126,-4.305 0.265,-8.281 -2.361,-10.908 -0.195,-0.195 -0.195,-0.512 0,-0.707 0.195,-0.195 0.512,-0.195 0.707,0 2.884,2.885 3.84,7.21 2.622,11.868 -0.06,0.224 -0.263,0.373 -0.484,0.373 z"
   id="path87" />
					</g>
					<g
   id="g89">
						<path
   style="fill:#47124e"
   d="m 98.631,375.8 c -0.128,0 -0.256,-0.049 -0.354,-0.147 -5.552,-5.553 -4.93,-15.21 1.387,-21.526 0.195,-0.195 0.512,-0.195 0.707,0 0.195,0.195 0.195,0.512 0,0.707 -5.927,5.927 -6.549,14.949 -1.387,20.112 0.195,0.195 0.195,0.512 0,0.707 -0.097,0.098 -0.225,0.147 -0.353,0.147 z"
   id="path88" />
					</g>
				</g>
				<g
   style="opacity:0.15"
   id="g91">
					<path
   style="fill:#c97e2e"
   d="m 105.448,367.89 c -3.063,-3.957 -3.952,-9.262 0.375,-17.269 -2.081,0.84 -4.071,2.126 -5.805,3.86 -6.132,6.132 -6.753,15.453 -1.387,20.819 5.347,5.347 14.62,4.746 20.753,-1.327 -7.023,1.164 -10.688,-1.887 -13.936,-6.083 z"
   id="path90" />
				</g>
			</g>
			<g
   id="g105">
				<g
   id="g98">
					<g
   id="g93">
						<path
   style="fill:#ffc068"
   d="m 91.831,334.5 c 5.214,2.91 7.55,8.658 5.216,12.84 -2.333,4.181 -8.452,5.212 -13.666,2.302 -5.214,-2.91 -7.55,-8.658 -5.216,-12.84 2.333,-4.181 8.451,-5.212 13.666,-2.302 z"
   id="path92" />
					</g>
					<g
   id="g94">
						<path
   style="fill:#cc9343"
   d="m 94.683,346.826 c -0.06,0 -0.12,-0.011 -0.179,-0.033 -5.718,-2.186 -10.665,-6.206 -10.873,-6.377 -0.213,-0.175 -0.245,-0.49 -0.07,-0.703 0.175,-0.214 0.49,-0.245 0.703,-0.071 0.05,0.041 5.034,4.09 10.598,6.217 0.258,0.098 0.387,0.387 0.289,0.646 -0.077,0.199 -0.267,0.321 -0.468,0.321 z"
   id="path93" />
					</g>
					<g
   style="opacity:0.15"
   id="g95">
						<path
   style="fill:#c97e2e"
   d="m 82.454,344.63 c -2.074,-0.736 -3.824,-1.92 -5.131,-3.344 0.367,3.176 2.56,6.405 6.057,8.357 5.214,2.91 11.333,1.879 13.666,-2.302 1.576,-2.825 1.015,-6.363 -1.118,-9.26 -0.035,0.673 -0.154,1.342 -0.386,1.995 -1.6,4.511 -7.46,6.551 -13.088,4.554 z"
   id="path94" />
					</g>
					<g
   id="g97">
						<g
   id="g96">
							<path
   style="fill:#47124e"
   d="m 89.511,351.797 c -2.141,0 -4.349,-0.588 -6.373,-1.719 -0.241,-0.134 -0.328,-0.439 -0.193,-0.68 0.134,-0.241 0.438,-0.328 0.68,-0.193 2.423,1.352 5.117,1.868 7.587,1.452 2.429,-0.409 4.346,-1.674 5.399,-3.561 0.134,-0.241 0.439,-0.327 0.68,-0.193 0.241,0.134 0.328,0.439 0.193,0.68 -1.204,2.158 -3.373,3.6 -6.106,4.06 -0.612,0.104 -1.237,0.154 -1.867,0.154 z"
   id="path95" />
						</g>
					</g>
				</g>
				<g
   id="g104">
					<g
   id="g99">
						<path
   style="fill:#ffc068"
   d="m 114.41,325.247 c -0.678,5.038 -4.502,8.681 -8.542,8.138 -4.04,-0.544 -6.765,-5.068 -6.087,-10.106 0.678,-5.038 4.502,-8.681 8.542,-8.138 4.04,0.543 6.765,5.068 6.087,10.106 z"
   id="path98" />
					</g>
					<g
   id="g100">
						<path
   style="fill:#cc9343"
   d="m 105.934,331.695 c -0.274,0 -0.497,-0.221 -0.5,-0.495 -0.053,-5.223 1.591,-10.407 1.661,-10.625 0.085,-0.262 0.365,-0.407 0.629,-0.323 0.263,0.084 0.408,0.366 0.323,0.629 -0.017,0.052 -1.665,5.252 -1.613,10.31 0.003,0.276 -0.219,0.502 -0.495,0.505 -10e-4,-0.001 -0.003,-0.001 -0.005,-0.001 z"
   id="path99" />
					</g>
					<g
   style="opacity:0.15"
   id="g101">
						<path
   style="fill:#c97e2e"
   d="m 103.462,320.98 c -0.064,-1.872 0.327,-3.628 1.048,-5.107 -2.401,1.282 -4.274,4.026 -4.729,7.405 -0.678,5.038 2.048,9.563 6.087,10.106 2.729,0.367 5.356,-1.181 6.985,-3.775 -0.544,0.182 -1.111,0.297 -1.7,0.317 -4.073,0.14 -7.517,-3.865 -7.691,-8.946 z"
   id="path100" />
					</g>
					<g
   id="g103">
						<g
   id="g102">
							<path
   style="fill:#47124e"
   d="m 105.869,333.884 c -0.022,0 -0.044,-0.001 -0.067,-0.004 -2.107,-0.284 -3.944,-1.564 -5.174,-3.605 -1.208,-2.006 -1.685,-4.514 -1.342,-7.063 0.037,-0.273 0.283,-0.467 0.563,-0.429 0.273,0.037 0.465,0.289 0.429,0.563 -0.313,2.324 0.116,4.602 1.207,6.414 1.07,1.776 2.651,2.888 4.451,3.13 0.273,0.037 0.465,0.288 0.429,0.563 -0.035,0.249 -0.25,0.431 -0.496,0.431 z"
   id="path101" />
						</g>
					</g>
				</g>
			</g>
		</g>
	</g></svg>
