<?xml version="1.0" encoding="UTF-8" standalone="no"?>
<!-- Generator: Adobe Illustrator 27.5.0, SVG Export Plug-In . SVG Version: 6.00 Build 0)  -->

<svg
   version="1.1"
   x="0px"
   y="0px"
   viewBox="0 0 128 128"
   xml:space="preserve"
   id="svg362"
   sodipodi:docname="shrimp.svg"
   width="128"
   height="128"
   inkscape:version="1.3.2 (091e20e, 2023-11-25)"
   xmlns:inkscape="http://www.inkscape.org/namespaces/inkscape"
   xmlns:sodipodi="http://sodipodi.sourceforge.net/DTD/sodipodi-0.dtd"
   xmlns="http://www.w3.org/2000/svg"
   xmlns:svg="http://www.w3.org/2000/svg"><defs
   id="defs362" /><sodipodi:namedview
   id="namedview362"
   pagecolor="#ffffff"
   bordercolor="#000000"
   borderopacity="0.25"
   inkscape:showpageshadow="false"
   inkscape:pageopacity="0.0"
   inkscape:pagecheckerboard="0"
   inkscape:deskcolor="#d1d1d1"
   showborder="false"
   borderlayer="false"
   inkscape:zoom="0.472"
   inkscape:cx="248.94068"
   inkscape:cy="250"
   inkscape:window-width="1312"
   inkscape:window-height="449"
   inkscape:window-x="0"
   inkscape:window-y="158"
   inkscape:window-maximized="0"
   inkscape:current-layer="svg362" />



<g
   id="g53"
   transform="matrix(1.2773188,0,0,1.2773188,-255.22602,-380.66815)">
		<g
   id="g5">
			<g
   id="g2">
				<g
   id="g1">
					
						<circle
   transform="matrix(0.7071,-0.7071,0.7071,0.7071,-174.7428,279.4241)"
   style="fill:#eae8ff"
   cx="249.923"
   cy="350.64499"
   id="ellipse1"
   r="47.587002" />
				</g>
			</g>
			<g
   id="g4">
				<g
   id="g3">
					
						<circle
   transform="matrix(0.2652,-0.9642,0.9642,0.2652,-149.5925,494.8768)"
   style="fill:#83c0f2"
   cx="249.90401"
   cy="345.58899"
   id="ellipse2"
   r="47.548" />
				</g>
			</g>
		</g>
		<g
   id="g52">
			<g
   id="g20">
				<g
   id="g7">
					<g
   id="g6">
						<path
   style="fill:#cb4250"
   d="m 242.231,348.344 c 0,-2.022 1.511,-3.465 3.465,-3.465 1.954,0 10.462,0 14.099,0 7.007,0 12.8,-5.667 12.8,-12.8 -4.852,-3.933 -10.664,-5.132 -26.899,-5.132 -11.802,0 -21.369,9.567 -21.369,21.369 0,11.802 9.567,21.369 21.369,21.369 7.796,0 11.46,-4.851 13.864,-9.633 l -0.062,-0.25 c -5.532,-1.253 -17.267,-4.104 -17.267,-11.458 z"
   id="path5" />
					</g>
				</g>
				<g
   id="g9">
					<g
   id="g8">
						<path
   style="fill:#47104e"
   d="m 272.596,332.578 c -0.276,0 -0.5,-0.224 -0.5,-0.5 0,-0.276 0.224,-0.5 0.5,-0.5 0.9,0 2.424,-0.535 2.424,-2.54 0,-3.429 -4.299,-5.352 -12.104,-5.415 -12.68,-0.103 -15.752,-5.654 -15.877,-5.89 -0.129,-0.245 -0.035,-0.547 0.209,-0.676 0.246,-0.129 0.547,-0.036 0.676,0.209 0.027,0.05 2.984,5.259 15,5.357 10.825,0.087 13.097,3.537 13.097,6.415 -0.001,2.432 -1.776,3.54 -3.425,3.54 z"
   id="path7" />
					</g>
				</g>
				<g
   id="g11">
					<g
   id="g10">
						<path
   style="fill:#e36673"
   d="m 230.601,333.19 c 3.866,-3.858 9.202,-6.245 15.095,-6.245 v 17.933 c -0.968,0 -1.826,0.356 -2.447,0.96 l -0.003,10e-4 z"
   id="path9" />
					</g>
				</g>
				<g
   id="g13">
					<g
   id="g12">
						<path
   style="fill:#e36673"
   d="m 224.328,348.344 h 17.903 c 0,1.027 0.232,1.965 0.641,2.824 l -12.272,12.27 h -0.001 c -3.868,-3.862 -6.263,-9.198 -6.271,-15.094 z"
   id="path11" />
					</g>
				</g>
				<g
   id="g15">
					<g
   id="g14">
						<path
   style="fill:#e36673"
   d="m 259.665,359.839 c -2.402,4.849 -6.057,9.845 -13.969,9.845 v -15.213 c 3.968,3.051 10.376,4.557 13.969,5.368 z"
   id="path13" />
					</g>
				</g>
				<g
   id="g17">
					<g
   id="g16">
						<path
   style="fill:#e36673"
   d="m 259.89,359.729 c 4.767,-1.57 8.669,-3.768 10.42,-1.974 1.182,1.21 -2.89,8.878 -4.145,8.461 -1.633,-0.543 -4.012,-2.399 -5.852,-5.426 -0.168,-0.277 -0.362,-0.591 -0.573,-0.934 z"
   id="path15" />
					</g>
				</g>
				<g
   style="opacity:0.15"
   id="g19">
					<g
   id="g18">
						<path
   style="fill:#47104e"
   d="m 234.42,349.001 c 0,5.712 5.16,10.342 11.524,10.342 2.29,0 4.031,-0.717 5.468,-1.852 -4.718,-1.791 -9.18,-4.612 -9.18,-9.147 0,-2.022 1.511,-3.465 3.465,-3.465 1.236,0 5.096,0 8.686,0 -2.37,-1.944 -5.769,-3.813 -9.12,-3.813 -6.365,-10e-4 -10.843,2.223 -10.843,7.935 z"
   id="path17" />
					</g>
				</g>
			</g>
			<g
   id="g39">
				<g
   id="g22">
					<g
   id="g21">
						<path
   style="fill:#47104e"
   d="m 249.512,357.2 c -0.067,0 -0.135,-0.014 -0.201,-0.042 -4.959,-2.177 -7.581,-5.225 -7.581,-8.814 0,-2.26 1.705,-3.965 3.965,-3.965 h 14.099 c 6.783,0 12.301,-5.518 12.301,-12.3 0,-0.093 0.026,-0.184 0.075,-0.263 0.01,-0.016 0.998,-1.647 0.439,-3.095 -0.358,-0.929 -1.293,-1.619 -2.775,-2.049 -1.906,-0.553 -4.858,-0.724 -7.983,-0.906 -6.382,-0.371 -13.615,-0.79 -16.546,-4.477 -0.171,-0.216 -0.136,-0.531 0.081,-0.703 0.216,-0.172 0.53,-0.137 0.703,0.081 2.653,3.337 9.648,3.743 15.821,4.102 3.183,0.185 6.19,0.359 8.204,0.944 1.803,0.523 2.958,1.417 3.433,2.657 0.636,1.661 -0.187,3.367 -0.45,3.846 -0.073,7.272 -6.011,13.165 -13.3,13.165 h -14.099 c -1.718,0 -2.965,1.247 -2.965,2.965 0,3.818 3.469,6.276 6.557,7.707 l 1.132,-2.164 c 0.127,-0.245 0.43,-0.341 0.674,-0.211 0.245,0.128 0.339,0.43 0.211,0.674 l -1.35,2.583 c -0.09,0.166 -0.264,0.265 -0.445,0.265 z"
   id="path20" />
					</g>
				</g>
				<g
   id="g24">
					<g
   id="g23">
						<path
   style="fill:#47104e"
   d="m 266.253,366.421 c -0.046,0 -0.094,-0.006 -0.141,-0.02 -1.574,-0.462 -4.173,-2.159 -6.317,-5.421 -0.151,-0.231 -0.087,-0.541 0.143,-0.693 0.232,-0.15 0.542,-0.087 0.693,0.143 1.868,2.841 4.24,4.564 5.763,5.011 0.265,0.078 0.417,0.356 0.339,0.621 -0.064,0.218 -0.263,0.359 -0.48,0.359 z"
   id="path22" />
					</g>
				</g>
				<g
   id="g26">
					<g
   id="g25">
						<path
   style="fill:none;stroke:#47104e;stroke-linecap:round;stroke-linejoin:round;stroke-miterlimit:10"
   d="M 245.696,369.684"
   id="path24" />
					</g>
				</g>
				<g
   id="g28">
					<g
   id="g27">
						<path
   style="fill:#47104e"
   d="m 233.082,366.065 c -0.102,0 -0.206,-0.031 -0.295,-0.097 -5.61,-4.109 -8.96,-10.708 -8.96,-17.654 0,-5.848 2.279,-11.345 6.418,-15.477 0.194,-0.194 0.512,-0.195 0.707,0.001 0.195,0.195 0.195,0.512 -0.001,0.707 -3.949,3.943 -6.124,9.188 -6.124,14.769 0,6.628 3.197,12.926 8.551,16.847 0.223,0.163 0.271,0.476 0.108,0.699 -0.098,0.135 -0.25,0.205 -0.404,0.205 z"
   id="path26" />
					</g>
				</g>
				<g
   id="g30">
					<g
   id="g29">
						<path
   style="fill:#47104e"
   d="m 245.696,345.378 c -0.276,0 -0.5,-0.224 -0.5,-0.5 v -17.933 c 0,-0.276 0.224,-0.5 0.5,-0.5 0.276,0 0.5,0.224 0.5,0.5 v 17.933 c 0,0.277 -0.223,0.5 -0.5,0.5 z"
   id="path28" />
					</g>
				</g>
				<g
   id="g32">
					<g
   id="g31">
						<path
   style="fill:none;stroke:#47104e;stroke-linecap:round;stroke-linejoin:round;stroke-miterlimit:10"
   d="M 230.601,333.19"
   id="path30" />
					</g>
				</g>
				<g
   id="g34">
					<g
   id="g33">
						<path
   style="fill:#47104e"
   d="M 242.231,348.843 H 233.6 c -0.276,0 -0.5,-0.224 -0.5,-0.5 0,-0.276 0.224,-0.5 0.5,-0.5 h 8.631 c 0.276,0 0.5,0.224 0.5,0.5 0,0.277 -0.224,0.5 -0.5,0.5 z"
   id="path32" />
					</g>
				</g>
				<g
   id="g36">
					<g
   id="g35">
						<path
   style="fill:#47104e"
   d="m 234.696,359.842 c -0.128,0 -0.256,-0.049 -0.354,-0.146 -0.195,-0.195 -0.195,-0.512 0,-0.707 l 7.722,-7.721 3.581,-2.669 c 0.222,-0.165 0.535,-0.118 0.7,0.103 0.165,0.222 0.119,0.535 -0.103,0.7 l -3.526,2.621 -7.667,7.673 c -0.097,0.097 -0.225,0.146 -0.353,0.146 z"
   id="path34" />
					</g>
				</g>
				<g
   id="g38">
					<g
   id="g37">
						<path
   style="fill:#47104e"
   d="m 245.696,362 c -0.276,0 -0.5,-0.224 -0.5,-0.5 v -7.029 c 0,-0.125 0.047,-0.246 0.131,-0.337 l 2.308,-2.52 c 0.187,-0.204 0.503,-0.217 0.706,-0.031 0.204,0.187 0.218,0.503 0.031,0.706 l -2.176,2.377 v 6.835 c 0,0.275 -0.223,0.499 -0.5,0.499 z"
   id="path36" />
					</g>
				</g>
			</g>
			<g
   id="g41">
				<g
   id="g40">
					<circle
   style="fill:#47104e"
   cx="259.52701"
   cy="334.61301"
   r="1.973"
   id="circle39" />
				</g>
			</g>
			<g
   id="g43">
				<g
   id="g42">
					<path
   style="fill:#ffffff"
   d="m 260.884,334.154 c 0,0.505 -0.409,0.915 -0.915,0.915 -0.506,0 -0.915,-0.41 -0.915,-0.915 0,-0.505 0.409,-0.915 0.915,-0.915 0.506,0 0.915,0.41 0.915,0.915 z"
   id="path41" />
				</g>
			</g>
			<g
   id="g45">
				<g
   id="g44">
					<path
   style="fill:#47104e"
   d="m 259.665,353.242 c -0.015,0 -0.03,0 -0.045,-0.002 -0.275,-0.025 -0.478,-0.268 -0.453,-0.543 0.125,-1.376 0.125,-3.077 -0.072,-3.417 -0.24,-0.399 -2.648,-2.348 -4.838,-4.002 -0.22,-0.167 -0.264,-0.48 -0.098,-0.7 0.166,-0.221 0.479,-0.265 0.7,-0.098 1.088,0.822 4.672,3.561 5.1,4.298 0.456,0.784 0.271,3.267 0.204,4.01 -0.024,0.259 -0.242,0.454 -0.498,0.454 z"
   id="path43" />
				</g>
			</g>
			<g
   id="g47">
				<g
   id="g46">
					<path
   style="fill:#47104e"
   d="m 263.342,352.806 c -0.016,0 -0.031,-10e-4 -0.047,-0.003 -0.275,-0.026 -0.477,-0.27 -0.451,-0.544 0.109,-1.16 0.1,-2.628 -0.103,-2.979 -0.24,-0.399 -2.648,-2.348 -4.838,-4.002 -0.22,-0.167 -0.264,-0.48 -0.098,-0.7 0.167,-0.221 0.479,-0.265 0.7,-0.098 1.088,0.822 4.672,3.561 5.1,4.298 0.468,0.805 0.277,3.119 0.234,3.575 -0.024,0.258 -0.242,0.453 -0.497,0.453 z"
   id="path45" />
				</g>
			</g>
			<g
   id="g49">
				<g
   id="g48">
					<path
   style="fill:#47104e"
   d="m 266.039,351.513 c -0.014,0 -0.027,-10e-4 -0.041,-0.002 -0.275,-0.022 -0.48,-0.264 -0.458,-0.539 0.082,-1.004 0.071,-2.274 -0.075,-2.563 -0.185,-0.342 -2.016,-2.047 -3.604,-3.431 -0.209,-0.181 -0.23,-0.497 -0.049,-0.705 0.182,-0.209 0.498,-0.229 0.705,-0.049 0.819,0.712 3.515,3.088 3.841,3.735 0.344,0.684 0.224,2.541 0.179,3.095 -0.022,0.261 -0.241,0.459 -0.498,0.459 z"
   id="path47" />
				</g>
			</g>
			<g
   id="g51">
				<g
   id="g50">
					<path
   style="fill:#47104e"
   d="m 269.018,350.762 c -0.014,0 -0.027,0 -0.041,-10e-4 -0.275,-0.023 -0.48,-0.264 -0.458,-0.539 0.082,-1.004 0.071,-2.274 -0.074,-2.563 -0.186,-0.342 -2.016,-2.048 -3.605,-3.431 -0.208,-0.181 -0.23,-0.497 -0.049,-0.705 0.182,-0.209 0.498,-0.229 0.705,-0.049 0.819,0.712 3.515,3.087 3.841,3.735 0.344,0.683 0.224,2.542 0.179,3.095 -0.022,0.26 -0.241,0.458 -0.498,0.458 z"
   id="path49" />
				</g>
			</g>
		</g>
	</g></svg>
