<?xml version="1.0" encoding="UTF-8" standalone="no"?>
<!-- Generator: Adobe Illustrator 27.5.0, SVG Export Plug-In . SVG Version: 6.00 Build 0)  -->

<svg
   version="1.1"
   x="0px"
   y="0px"
   viewBox="0 0 128 128"
   xml:space="preserve"
   id="svg180"
   sodipodi:docname="walnut.svg"
   width="128"
   height="128"
   inkscape:version="1.3.2 (091e20e, 2023-11-25)"
   xmlns:inkscape="http://www.inkscape.org/namespaces/inkscape"
   xmlns:sodipodi="http://sodipodi.sourceforge.net/DTD/sodipodi-0.dtd"
   xmlns="http://www.w3.org/2000/svg"
   xmlns:svg="http://www.w3.org/2000/svg"><defs
   id="defs180" /><sodipodi:namedview
   id="namedview180"
   pagecolor="#ffffff"
   bordercolor="#000000"
   borderopacity="0.25"
   inkscape:showpageshadow="false"
   inkscape:pageopacity="0.0"
   inkscape:pagecheckerboard="0"
   inkscape:deskcolor="#d1d1d1"
   showborder="false"
   borderlayer="false"
   inkscape:zoom="0.472"
   inkscape:cx="248.94068"
   inkscape:cy="250"
   inkscape:window-width="1312"
   inkscape:window-height="449"
   inkscape:window-x="0"
   inkscape:window-y="158"
   inkscape:window-maximized="0"
   inkscape:current-layer="svg180" />



<g
   id="g57"
   transform="matrix(1.2825498,0,0,1.2825498,-256.55443,-189.66328)">
		<g
   id="g22">
			<g
   id="g20">
				
					<circle
   transform="matrix(0.7071,-0.7071,0.7071,0.7071,-68.2866,235.3286)"
   style="fill:#eae8ff"
   cx="249.923"
   cy="200.09399"
   id="ellipse19"
   r="47.587002" />
			</g>
			<g
   id="g21">
				
					<ellipse
   transform="matrix(0.1653,-0.9862,0.9862,0.1653,15.9484,409.6737)"
   style="fill:#de4e5e"
   cx="250"
   cy="195.41499"
   rx="47.548"
   ry="47.547001"
   id="ellipse20" />
			</g>
		</g>
		<g
   id="g56">
			<g
   id="g39">
				<g
   id="g23">
					<path
   style="fill:#7e4e2f"
   d="m 241.068,202.378 c 7.668,8.759 21.59,9.113 31.097,0.79 7.793,-6.823 10.2,-17.358 6.589,-25.76 -0.794,-1.847 -1.175,-4.613 -1.007,-7.141 -2.528,-0.168 -5.219,-0.912 -6.945,-1.943 -7.85,-4.69 -18.611,-3.698 -26.405,3.124 -9.506,8.323 -10.997,22.171 -3.329,30.93 z"
   id="path22" />
				</g>
				<g
   style="opacity:0.15"
   id="g24">
					<path
   style="fill:#b62ec9"
   d="m 250.097,177.96 c 7.793,-6.823 16.84,-9.773 22.337,-7.771 1.208,0.44 3.269,0.464 5.313,0.078 -2.528,-0.168 -5.219,-0.912 -6.945,-1.943 -7.85,-4.69 -18.611,-3.698 -26.405,3.124 -9.507,8.322 -10.997,22.17 -3.329,30.928 -4.52,-5.161 -0.477,-16.093 9.029,-24.416 z"
   id="path23" />
				</g>
				<g
   id="g28">
					<g
   id="g25">
						<path
   style="fill:none;stroke:#734324;stroke-linecap:round;stroke-linejoin:round;stroke-miterlimit:10"
   d="M 241.068,202.378"
   id="path24" />
					</g>
					<g
   id="g26">
						<path
   style="fill:#734324"
   d="m 248.439,176.566 c -0.139,0 -0.277,-0.058 -0.376,-0.171 -0.182,-0.208 -0.161,-0.523 0.047,-0.705 2.993,-2.62 6.388,-4.704 9.819,-6.025 2.88,-1.108 5.81,-1.688 8.44,-1.658 0.276,0.003 0.498,0.229 0.496,0.504 -0.002,0.275 -0.226,0.496 -0.5,0.496 -0.053,0 -0.103,0 -0.155,0 -2.478,0 -5.213,0.549 -7.921,1.592 -3.323,1.279 -6.615,3.3 -9.521,5.843 -0.095,0.083 -0.212,0.124 -0.329,0.124 z"
   id="path25" />
					</g>
					<g
   id="g27">
						<path
   style="fill:#734324"
   d="m 250.371,206.61 c -3.998,0 -7.422,-1.324 -9.68,-3.903 -0.182,-0.208 -0.161,-0.524 0.046,-0.706 0.208,-0.183 0.523,-0.162 0.706,0.046 3.472,3.967 10.031,4.678 17.116,1.859 0.257,-0.103 0.548,0.023 0.649,0.279 0.103,0.257 -0.023,0.547 -0.279,0.649 -2.991,1.191 -5.901,1.776 -8.558,1.776 z"
   id="path26" />
					</g>
				</g>
				<g
   id="g31">
					<g
   id="g29">
						<path
   style="fill:#734324"
   d="m 244.092,191.896 c -0.099,0 -0.2,-0.029 -0.287,-0.091 -0.226,-0.159 -0.28,-0.471 -0.122,-0.697 2.337,-3.324 5.511,-6.778 9.18,-9.989 2.76,-2.417 5.586,-4.515 8.401,-6.238 0.236,-0.144 0.544,-0.07 0.688,0.165 0.145,0.236 0.07,0.543 -0.165,0.688 -2.767,1.694 -5.548,3.758 -8.266,6.137 -3.609,3.16 -6.728,6.553 -9.02,9.812 -0.097,0.139 -0.252,0.213 -0.409,0.213 z"
   id="path28" />
					</g>
					<g
   id="g30">
						<path
   style="fill:#734324"
   d="m 251.292,201.864 c -0.187,0 -0.365,-0.105 -0.451,-0.283 -0.12,-0.249 -0.015,-0.548 0.234,-0.667 3.773,-1.815 8.022,-4.715 11.966,-8.167 3.896,-3.411 7.305,-7.197 9.6,-10.662 0.152,-0.23 0.461,-0.294 0.693,-0.141 0.23,0.153 0.293,0.463 0.141,0.693 -2.343,3.536 -5.814,7.394 -9.775,10.861 -4.01,3.51 -8.339,6.464 -12.191,8.317 -0.071,0.033 -0.145,0.049 -0.217,0.049 z"
   id="path29" />
					</g>
				</g>
				<g
   id="g35">
					<g
   id="g32">
						<path
   style="fill:#734324"
   d="m 242.761,201.395 c -0.113,0 -0.228,-0.038 -0.322,-0.118 -0.211,-0.178 -0.238,-0.493 -0.06,-0.705 1.928,-2.289 6.6,-6.406 8.845,-8.384 l 0.725,-0.64 c 0.206,-0.184 0.522,-0.166 0.706,0.042 0.184,0.206 0.165,0.523 -0.042,0.706 l -0.728,0.644 c -2.053,1.809 -6.861,6.045 -8.741,8.278 -0.099,0.116 -0.241,0.177 -0.383,0.177 z"
   id="path31" />
					</g>
					<g
   id="g33">
						<path
   style="fill:#734324"
   d="m 259.522,186.047 c -0.139,0 -0.278,-0.058 -0.377,-0.171 -0.181,-0.208 -0.16,-0.524 0.048,-0.706 3.921,-3.418 7.662,-6.626 10.533,-9.032 2.15,-1.801 3.759,-3.108 4.655,-3.781 0.221,-0.165 0.534,-0.121 0.7,0.1 0.166,0.221 0.121,0.534 -0.1,0.7 -0.881,0.662 -2.477,1.959 -4.613,3.748 -2.867,2.402 -6.603,5.605 -10.519,9.02 -0.093,0.082 -0.21,0.122 -0.327,0.122 z"
   id="path32" />
					</g>
					<g
   id="g34">
						<path
   style="fill:none;stroke:#734324;stroke-linecap:round;stroke-linejoin:round;stroke-miterlimit:10"
   d="M 241.068,202.378"
   id="path33" />
					</g>
				</g>
				<g
   id="g36">
					<path
   style="fill:#995f39"
   d="m 274.564,191.588 c -0.089,0 -0.18,-0.024 -0.261,-0.074 -0.235,-0.145 -0.309,-0.453 -0.164,-0.688 1.732,-2.817 2.873,-5.773 3.301,-8.549 0.042,-0.272 0.298,-0.456 0.57,-0.418 0.273,0.042 0.46,0.297 0.418,0.57 -0.447,2.906 -1.636,5.99 -3.438,8.92 -0.094,0.154 -0.259,0.239 -0.426,0.239 z"
   id="path35" />
				</g>
				<g
   id="g37">
					<path
   style="fill:#47124e"
   d="m 278.919,193.996 c -0.062,0 -0.124,-0.011 -0.185,-0.035 -0.256,-0.102 -0.382,-0.393 -0.28,-0.649 2.585,-6.516 1.146,-11.325 -0.122,-15.569 l -0.057,-0.191 c -0.565,-1.89 -1.201,-4.694 -1.027,-7.317 0.018,-0.276 0.264,-0.48 0.532,-0.466 0.275,0.018 0.484,0.257 0.466,0.532 -0.165,2.474 0.446,5.153 0.987,6.964 l 0.057,0.191 c 1.315,4.399 2.806,9.386 0.094,16.224 -0.078,0.196 -0.266,0.316 -0.465,0.316 z"
   id="path36" />
				</g>
				<g
   id="g38">
					<path
   style="fill:none;stroke:#47124e;stroke-linecap:round;stroke-linejoin:round;stroke-miterlimit:10"
   d="M 241.068,202.378"
   id="path37" />
				</g>
			</g>
			<g
   id="g55">
				<g
   id="g40">
					<path
   style="fill:#7e4e2f"
   d="m 256.355,219.795 c 7.926,-7.926 7.377,-21.325 -1.225,-29.927 -7.052,-7.052 -17.328,-8.692 -25.169,-4.687 -1.724,0.88 -4.357,1.423 -6.796,1.423 0,2.439 -0.543,5.073 -1.423,6.796 -4.005,7.841 -2.365,18.117 4.687,25.169 8.602,8.603 22.001,9.152 29.926,1.226 z"
   id="path39" />
				</g>
				<g
   id="g41">
					<path
   style="fill:#47124e"
   d="m 240.78,225.828 c -0.014,0 -0.027,-0.001 -0.041,-0.001 -5.449,-0.444 -10.657,-2.896 -14.664,-6.903 -0.195,-0.195 -0.195,-0.512 0,-0.707 0.195,-0.195 0.512,-0.195 0.707,0 3.84,3.839 8.826,6.188 14.038,6.613 0.275,0.022 0.48,0.264 0.458,0.539 -0.022,0.261 -0.24,0.459 -0.498,0.459 z"
   id="path40" />
				</g>
				<g
   id="g42">
					<path
   style="fill:#47124e"
   d="m 223.165,187.104 c -0.276,0 -0.5,-0.224 -0.5,-0.5 0,-0.276 0.224,-0.5 0.5,-0.5 2.362,0 4.941,-0.537 6.568,-1.369 0.246,-0.125 0.547,-0.027 0.673,0.218 0.125,0.246 0.028,0.547 -0.218,0.673 -1.785,0.912 -4.476,1.478 -7.023,1.478 z"
   id="path41" />
				</g>
				<g
   id="g53">
					<g
   id="g43">
						<path
   style="fill:#eaa72d"
   d="m 235.003,189.211 c 2.221,-2.221 5.823,-2.221 8.044,0 0.76,0.76 1.254,1.683 1.493,2.656 2.218,-1.543 5.286,-1.331 7.264,0.647 1.534,1.534 2.008,3.727 1.422,5.669 0.242,0.175 0.476,0.365 0.693,0.583 1.9,1.899 2.169,4.806 0.82,6.998 0.223,0.153 0.439,0.322 0.637,0.52 1.731,1.731 1.731,4.536 0,6.267 -1.731,1.731 -4.536,1.731 -6.267,0 v 0 c 1.731,1.731 1.731,4.536 0,6.267 -1.731,1.731 -4.536,1.731 -6.267,0 -0.198,-0.198 -0.367,-0.414 -0.52,-0.637 -2.192,1.349 -5.098,1.08 -6.998,-0.82 -0.218,-0.218 -0.408,-0.452 -0.583,-0.693 -1.942,0.586 -4.134,0.112 -5.669,-1.422 -1.977,-1.977 -2.19,-5.046 -0.647,-7.264 -0.973,-0.24 -1.895,-0.733 -2.656,-1.493 -2.221,-2.221 -2.221,-5.823 0,-8.044 2.069,-2.069 2.896,-6.241 1.779,-7.453 1.119,1.209 5.104,0.569 7.455,-1.781 z"
   id="path42" />
					</g>
					<g
   style="opacity:0.15"
   id="g44">
						<path
   style="fill:#b62ec9"
   d="m 225.771,198.442 c -2.221,2.221 -2.221,5.823 0,8.044 0.76,0.76 1.683,1.254 2.656,1.493 -1.543,2.218 -1.331,5.286 0.647,7.264 1.534,1.535 3.727,2.008 5.669,1.422 0.175,0.242 0.365,0.476 0.583,0.693 1.9,1.9 4.806,2.169 6.998,0.82 0.153,0.223 0.322,0.439 0.52,0.637 1.731,1.731 4.536,1.731 6.267,0 1.73,-1.73 1.73,-4.535 0.001,-6.265 -0.001,0 -0.001,-0.001 -0.002,-0.001 -0.002,0.012 -0.992,5.608 -7.999,3.616 -3.77,2.13 -6.441,-2.259 -6.441,-2.259 -4.6,-0.349 -4.75,-5.785 -4.75,-5.785 1.493,0.14 4.052,-1.687 4.052,-1.687 -2.549,-0.781 -5.481,-2.848 -4.437,-7.192 0.886,-3.685 -1.155,-7.048 -1.796,-7.985 0.817,1.468 -0.031,5.248 -1.968,7.185 z"
   id="path43" />
					</g>
					<g
   id="g45">
						<path
   style="fill:#47124e"
   d="m 229.438,192.089 c -0.038,0 -0.075,0 -0.112,-0.001 -0.962,-0.02 -1.704,-0.282 -2.144,-0.76 -0.187,-0.203 -0.174,-0.52 0.029,-0.706 0.204,-0.186 0.52,-0.174 0.707,0.029 0.244,0.265 0.765,0.424 1.429,0.438 1.466,0.035 3.728,-0.656 5.303,-2.231 0.195,-0.195 0.512,-0.195 0.707,0 0.195,0.195 0.195,0.512 0,0.707 -1.753,1.752 -4.212,2.524 -5.919,2.524 z"
   id="path44" />
					</g>
					<g
   id="g46">
						<path
   style="fill:#47124e"
   d="m 245.976,220.611 c -1.263,0 -2.525,-0.48 -3.487,-1.442 -0.104,-0.104 -0.205,-0.216 -0.304,-0.338 -2.383,1.236 -5.291,0.805 -7.213,-1.119 -0.195,-0.195 -0.195,-0.512 0,-0.707 0.195,-0.195 0.512,-0.195 0.707,0 1.705,1.705 4.328,2.012 6.382,0.747 0.227,-0.141 0.524,-0.076 0.675,0.143 0.153,0.224 0.304,0.409 0.461,0.566 1.532,1.532 4.027,1.533 5.56,0 0.195,-0.195 0.512,-0.195 0.707,0 0.195,0.195 0.195,0.512 0,0.707 -0.963,0.962 -2.226,1.443 -3.488,1.443 z"
   id="path45" />
					</g>
					<g
   id="g47">
						<path
   style="fill:#47124e"
   d="m 254.739,206.262 c -0.089,0 -0.18,-0.024 -0.262,-0.074 -0.235,-0.145 -0.308,-0.453 -0.164,-0.688 1.264,-2.053 0.957,-4.678 -0.748,-6.382 -0.177,-0.177 -0.384,-0.351 -0.633,-0.531 -0.224,-0.162 -0.274,-0.475 -0.112,-0.698 0.161,-0.224 0.474,-0.274 0.698,-0.112 0.292,0.211 0.539,0.419 0.754,0.634 2.033,2.033 2.4,5.164 0.892,7.613 -0.093,0.153 -0.257,0.238 -0.425,0.238 z"
   id="path46" />
					</g>
					<g
   id="g48">
						<path
   style="fill:#47124e"
   d="m 229.887,208.626 c -0.398,0 -0.799,-0.038 -1.198,-0.115 -0.271,-0.052 -0.449,-0.314 -0.396,-0.585 0.052,-0.271 0.315,-0.447 0.585,-0.396 1.728,0.333 3.499,-0.208 4.74,-1.449 0.195,-0.195 0.512,-0.195 0.707,0 0.195,0.195 0.195,0.512 0,0.707 -1.189,1.188 -2.788,1.838 -4.438,1.838 z"
   id="path47" />
					</g>
					<g
   id="g49">
						<path
   style="fill:#47124e"
   d="m 242.323,218.679 c -0.146,0 -0.29,-0.063 -0.388,-0.184 -0.847,-1.04 -1.063,-2.205 -1.154,-2.702 -0.009,-0.047 -0.016,-0.086 -0.022,-0.117 -0.063,-0.134 -0.066,-0.295 0.006,-0.438 0.124,-0.248 0.426,-0.347 0.671,-0.222 0.241,0.121 0.279,0.33 0.328,0.594 0.084,0.458 0.261,1.411 0.946,2.252 0.174,0.214 0.142,0.529 -0.072,0.704 -0.093,0.076 -0.204,0.113 -0.315,0.113 z"
   id="path48" />
					</g>
					<g
   id="g50">
						<path
   style="fill:#47124e"
   d="m 242.993,197.912 c -0.128,0 -0.256,-0.049 -0.354,-0.146 -0.195,-0.195 -0.195,-0.512 0,-0.707 1.241,-1.241 1.783,-3.013 1.449,-4.74 -0.053,-0.271 0.125,-0.533 0.396,-0.586 0.27,-0.055 0.533,0.125 0.585,0.396 0.397,2.053 -0.247,4.16 -1.724,5.636 -0.096,0.098 -0.224,0.147 -0.352,0.147 z"
   id="path49" />
					</g>
					<g
   id="g51">
						<path
   style="fill:#47124e"
   d="m 254.738,206.262 c -0.111,0 -0.222,-0.037 -0.315,-0.112 -0.842,-0.685 -1.795,-0.861 -2.253,-0.946 -0.264,-0.049 -0.473,-0.087 -0.594,-0.328 -0.124,-0.247 -0.024,-0.547 0.222,-0.671 0.143,-0.071 0.304,-0.068 0.438,-0.005 0.031,0.006 0.07,0.013 0.117,0.021 0.498,0.092 1.662,0.308 2.702,1.154 0.214,0.174 0.247,0.489 0.072,0.703 -0.099,0.121 -0.243,0.184 -0.389,0.184 z"
   id="path50" />
					</g>
					<g
   id="g52">
						<path
   style="fill:#47124e"
   d="m 249.109,213.049 c -0.128,0 -0.256,-0.049 -0.354,-0.146 l -21.56,-21.559 c -0.195,-0.195 -0.195,-0.512 0,-0.707 0.195,-0.195 0.512,-0.195 0.707,0 l 21.56,21.56 c 0.195,0.195 0.195,0.512 0,0.707 -0.097,0.096 -0.225,0.145 -0.353,0.145 z"
   id="path51" />
					</g>
				</g>
				<g
   id="g54">
					<path
   style="fill:#47124e"
   d="m 261.654,202.855 c -0.24,0 -0.451,-0.172 -0.493,-0.417 -0.776,-4.592 -2.984,-8.817 -6.385,-12.218 -2.169,-2.169 -4.675,-3.853 -7.446,-5.005 -0.255,-0.106 -0.376,-0.399 -0.27,-0.654 0.106,-0.255 0.401,-0.375 0.654,-0.27 2.893,1.203 5.507,2.96 7.77,5.222 3.548,3.548 5.853,7.96 6.664,12.758 0.046,0.272 -0.138,0.53 -0.41,0.577 -0.028,0.005 -0.056,0.007 -0.084,0.007 z"
   id="path53" />
				</g>
			</g>
		</g>
	</g></svg>
