<?xml version="1.0" encoding="UTF-8" standalone="no"?>
<!-- Generator: Adobe Illustrator 27.5.0, SVG Export Plug-In . SVG Version: 6.00 Build 0)  -->

<svg
   version="1.1"
   x="0px"
   y="0px"
   viewBox="0 0 128 128"
   xml:space="preserve"
   id="svg319"
   sodipodi:docname="wheat.svg"
   width="128"
   height="128"
   inkscape:version="1.3.2 (091e20e, 2023-11-25)"
   xmlns:inkscape="http://www.inkscape.org/namespaces/inkscape"
   xmlns:sodipodi="http://sodipodi.sourceforge.net/DTD/sodipodi-0.dtd"
   xmlns="http://www.w3.org/2000/svg"
   xmlns:svg="http://www.w3.org/2000/svg"><defs
   id="defs319" /><sodipodi:namedview
   id="namedview319"
   pagecolor="#ffffff"
   bordercolor="#000000"
   borderopacity="0.25"
   inkscape:showpageshadow="false"
   inkscape:pageopacity="0.0"
   inkscape:pagecheckerboard="0"
   inkscape:deskcolor="#d1d1d1"
   showborder="false"
   borderlayer="false"
   inkscape:zoom="0.472"
   inkscape:cx="248.94068"
   inkscape:cy="250"
   inkscape:window-width="1312"
   inkscape:window-height="449"
   inkscape:window-x="0"
   inkscape:window-y="158"
   inkscape:window-maximized="0"
   inkscape:current-layer="svg319" />



<g
   id="g141"
   transform="matrix(1.27825,0,0,1.27825,-254.38044,-190.69186)">
		<g
   id="g85">
			<g
   id="g83">
				
					<circle
   transform="matrix(0.7071,-0.7071,0.7071,0.7071,-69.6925,235.2107)"
   style="fill:#eae8ff"
   cx="249.078"
   cy="201.73199"
   id="ellipse82"
   r="47.587002" />
			</g>
			<g
   id="g84">
				
					<circle
   transform="matrix(0.7071,-0.7071,0.7071,0.7071,-66.1551,233.7455)"
   style="fill:#83c0f2"
   cx="249.078"
   cy="196.729"
   id="ellipse83"
   r="47.548" />
			</g>
		</g>
		<g
   id="g140">
			<g
   id="g110">
				<g
   id="g97">
					<g
   id="g86">
						<path
   style="fill:#ffdd80"
   d="m 270.938,180.946 c -2.706,1.868 -4.605,1.086 -5.172,0.266 -0.566,-0.82 -0.624,-2.873 2.082,-4.741 2.706,-1.868 7.237,-2.721 7.718,-2.024 0.481,0.697 -1.922,4.631 -4.628,6.499 z"
   id="path85" />
					</g>
					<g
   id="g87">
						<path
   style="fill:#f09f37"
   d="m 246.966,203.363 c 2.532,3.696 1.498,6.253 0.401,7.004 -1.097,0.751 -3.854,0.793 -6.387,-2.903 -2.532,-3.696 -3.715,-9.843 -2.783,-10.482 0.932,-0.638 6.237,2.685 8.769,6.381 z"
   id="path86" />
					</g>
					<g
   id="g88">
						<path
   style="fill:#e8b64f"
   d="m 250.159,195.762 c 2.27,3.313 1.343,5.605 0.359,6.279 -0.983,0.674 -3.455,0.711 -5.726,-2.603 -2.27,-3.314 -3.331,-8.824 -2.495,-9.397 0.836,-0.572 5.592,2.407 7.862,5.721 z"
   id="path87" />
					</g>
					<g
   id="g89">
						<path
   style="fill:#f0c35f"
   d="m 254.666,190.119 c 2.035,3.09 1.102,5.211 0.162,5.83 -0.94,0.619 -3.257,0.638 -5.292,-2.452 -2.035,-3.09 -2.876,-8.212 -2.077,-8.738 0.798,-0.526 5.172,2.27 7.207,5.36 z"
   id="path88" />
					</g>
					<g
   id="g90">
						<path
   style="fill:#f0c35f"
   d="m 259.811,193.125 c -3.691,-0.256 -5.081,1.598 -5.159,2.721 -0.078,1.123 1.043,3.151 4.734,3.407 3.691,0.256 8.566,-1.526 8.632,-2.48 0.067,-0.954 -4.516,-3.392 -8.207,-3.648 z"
   id="path89" />
					</g>
					<g
   id="g91">
						<path
   style="fill:#f7d070"
   d="m 258.831,184.567 c 1.587,2.877 0.513,4.745 -0.42,5.26 -0.933,0.515 -3.087,0.426 -4.673,-2.451 -1.587,-2.877 -1.866,-7.53 -1.073,-7.967 0.793,-0.437 4.58,2.282 6.166,5.158 z"
   id="path90" />
					</g>
					<g
   id="g92">
						<path
   style="fill:#f7d070"
   d="m 263.982,187.215 c -3.271,-0.311 -4.558,1.417 -4.659,2.478 -0.101,1.061 0.837,3.001 4.107,3.313 3.271,0.311 7.65,-1.284 7.736,-2.185 0.086,-0.902 -3.914,-3.295 -7.184,-3.606 z"
   id="path91" />
					</g>
					<g
   id="g93">
						<path
   style="fill:#fbd678"
   d="m 263.899,179.572 c 1.443,2.723 0.296,4.518 -0.651,5.02 -0.947,0.502 -3.077,0.444 -4.52,-2.279 -1.443,-2.723 -1.512,-7.156 -0.706,-7.582 0.804,-0.427 4.434,2.118 5.877,4.841 z"
   id="path92" />
					</g>
					<g
   id="g94">
						<path
   style="fill:#f09f37"
   d="m 253.772,207.34 c -4.463,-0.392 -6.182,1.765 -6.299,3.089 -0.116,1.325 1.201,3.747 5.665,4.139 4.463,0.392 10.399,-1.596 10.498,-2.721 0.098,-1.125 -5.401,-4.116 -9.864,-4.507 z"
   id="path93" />
					</g>
					<g
   id="g95">
						<path
   style="fill:#e8b64f"
   d="m 256.484,199.458 c -4.001,-0.351 -5.542,1.582 -5.646,2.77 -0.104,1.187 1.077,3.359 5.078,3.71 4.001,0.351 9.323,-1.431 9.411,-2.439 0.089,-1.009 -4.841,-3.69 -8.843,-4.041 z"
   id="path94" />
					</g>
					<g
   id="g96">
						<path
   style="fill:#fbd678"
   d="m 267.427,182.796 c -3.15,-0.24 -4.362,1.531 -4.444,2.603 -0.082,1.072 0.849,3.006 3.998,3.246 3.15,0.24 7.338,-1.467 7.407,-2.377 0.071,-0.912 -3.811,-3.233 -6.961,-3.472 z"
   id="path95" />
					</g>
				</g>
				<g
   id="g98">
					<path
   style="fill:#47124e"
   d="m 246.516,232.966 c -0.225,0 -0.429,-0.153 -0.485,-0.381 -6.515,-26.666 20.422,-52.139 20.695,-52.393 0.202,-0.188 0.518,-0.178 0.707,0.025 0.189,0.202 0.177,0.519 -0.025,0.706 -0.268,0.251 -26.781,25.33 -20.405,51.424 0.065,0.268 -0.099,0.539 -0.367,0.605 -0.041,0.009 -0.081,0.014 -0.12,0.014 z"
   id="path97" />
				</g>
				<g
   id="g109">
					<g
   id="g99">
						<path
   style="fill:#47124e"
   d="m 245.897,211.271 c -0.43,0 -0.882,-0.069 -1.334,-0.211 -1.001,-0.313 -2.507,-1.143 -3.995,-3.314 -0.156,-0.228 -0.098,-0.539 0.13,-0.695 0.229,-0.156 0.54,-0.097 0.695,0.13 1.326,1.936 2.618,2.659 3.468,2.925 1.013,0.316 1.813,0.13 2.223,-0.152 0.229,-0.155 0.539,-0.098 0.695,0.13 0.156,0.228 0.098,0.539 -0.13,0.695 -0.475,0.326 -1.087,0.492 -1.752,0.492 z"
   id="path98" />
					</g>
					<g
   id="g100">
						<path
   style="fill:#47124e"
   d="m 249.207,202.895 c -1.372,0 -3.186,-0.78 -4.827,-3.174 -0.156,-0.228 -0.098,-0.539 0.13,-0.695 0.229,-0.156 0.539,-0.098 0.695,0.13 2.01,2.934 4.153,3.075 5.03,2.473 0.229,-0.156 0.541,-0.097 0.695,0.13 0.156,0.228 0.098,0.539 -0.13,0.695 -0.385,0.264 -0.939,0.441 -1.593,0.441 z"
   id="path99" />
					</g>
					<g
   id="g101">
						<path
   style="fill:#47124e"
   d="m 253.608,196.77 c -1.298,0 -3,-0.737 -4.49,-2.998 -0.152,-0.23 -0.088,-0.541 0.143,-0.692 0.231,-0.15 0.542,-0.087 0.692,0.143 1.787,2.712 3.771,2.856 4.6,2.309 0.23,-0.153 0.542,-0.088 0.692,0.143 0.152,0.23 0.088,0.54 -0.143,0.692 -0.367,0.242 -0.886,0.403 -1.494,0.403 z"
   id="path100" />
					</g>
					<g
   id="g102">
						<path
   style="fill:#47124e"
   d="m 259.387,199.753 c -0.012,0 -0.023,-10e-4 -0.035,-10e-4 -2.196,-0.152 -3.434,-0.906 -4.086,-1.511 -0.753,-0.7 -1.169,-1.608 -1.112,-2.43 0.02,-0.275 0.26,-0.477 0.534,-0.464 0.275,0.02 0.483,0.258 0.464,0.534 -0.028,0.404 0.166,1.043 0.795,1.627 0.534,0.495 1.57,1.114 3.475,1.246 0.275,0.02 0.483,0.258 0.464,0.534 -0.019,0.263 -0.239,0.465 -0.499,0.465 z"
   id="path101" />
					</g>
					<g
   id="g103">
						<path
   style="fill:#47124e"
   d="m 257.376,190.57 c -0.402,0 -0.822,-0.076 -1.231,-0.228 -0.771,-0.287 -1.89,-0.992 -2.845,-2.725 -0.133,-0.242 -0.045,-0.546 0.197,-0.679 0.24,-0.133 0.545,-0.045 0.679,0.197 0.807,1.464 1.706,2.042 2.318,2.27 0.726,0.27 1.341,0.169 1.676,-0.016 0.242,-0.133 0.546,-0.045 0.68,0.196 0.133,0.242 0.045,0.546 -0.196,0.68 -0.369,0.203 -0.811,0.305 -1.278,0.305 z"
   id="path102" />
					</g>
					<g
   id="g104">
						<path
   style="fill:#47124e"
   d="m 263.431,193.505 c -0.016,0 -0.032,-0.001 -0.048,-0.003 -1.969,-0.187 -3.062,-0.933 -3.631,-1.526 -0.654,-0.681 -1,-1.553 -0.926,-2.331 0.026,-0.274 0.27,-0.484 0.545,-0.45 0.275,0.026 0.477,0.27 0.45,0.545 -0.036,0.38 0.116,0.985 0.652,1.544 0.452,0.471 1.341,1.065 3.005,1.224 0.275,0.026 0.477,0.27 0.45,0.545 -0.025,0.258 -0.243,0.452 -0.497,0.452 z"
   id="path103" />
					</g>
					<g
   id="g105">
						<path
   style="fill:#47124e"
   d="m 262.178,185.337 c -0.385,0 -0.784,-0.067 -1.17,-0.203 -0.757,-0.266 -1.844,-0.931 -2.722,-2.586 -0.129,-0.244 -0.036,-0.547 0.208,-0.676 0.243,-0.129 0.547,-0.036 0.676,0.208 0.575,1.085 1.325,1.815 2.17,2.112 0.709,0.249 1.33,0.143 1.674,-0.04 0.244,-0.13 0.547,-0.037 0.676,0.207 0.129,0.244 0.036,0.547 -0.208,0.676 -0.38,0.2 -0.832,0.302 -1.304,0.302 z"
   id="path104" />
					</g>
					<g
   id="g106">
						<path
   style="fill:#47124e"
   d="m 254.343,215.118 c -0.432,0 -0.85,-0.017 -1.249,-0.052 -2.622,-0.23 -4.083,-1.135 -4.848,-1.854 -0.878,-0.825 -1.354,-1.882 -1.271,-2.827 0.024,-0.275 0.268,-0.475 0.542,-0.454 0.275,0.024 0.479,0.267 0.454,0.542 -0.043,0.495 0.186,1.284 0.959,2.011 0.649,0.61 1.914,1.381 4.25,1.586 4.279,0.372 9.638,-1.509 9.962,-2.296 0.024,-0.275 0.271,-0.465 0.539,-0.439 0.275,0.024 0.476,0.281 0.452,0.556 -0.096,1.096 -2.53,1.953 -3.973,2.367 -1.957,0.56 -4.013,0.86 -5.817,0.86 z"
   id="path105" />
					</g>
					<g
   id="g107">
						<path
   style="fill:#47124e"
   d="m 256.996,206.482 c -0.389,0 -0.765,-0.015 -1.124,-0.047 -4.269,-0.374 -5.659,-2.806 -5.532,-4.251 0.024,-0.275 0.272,-0.476 0.542,-0.455 0.275,0.024 0.479,0.267 0.455,0.541 -0.093,1.061 1.081,2.858 4.624,3.169 3.814,0.332 8.539,-1.314 8.88,-2.028 0.024,-0.275 0.262,-0.462 0.537,-0.433 0.275,0.024 0.474,0.288 0.45,0.563 -0.089,1.014 -2.293,1.792 -3.599,2.166 -1.762,0.505 -3.61,0.775 -5.233,0.775 z"
   id="path106" />
					</g>
					<g
   id="g108">
						<path
   style="fill:#47124e"
   d="m 266.983,189.144 c -0.013,0 -0.025,0 -0.039,-0.001 -3.438,-0.262 -4.56,-2.458 -4.459,-3.782 0.021,-0.275 0.256,-0.488 0.537,-0.46 0.275,0.021 0.481,0.261 0.46,0.537 -0.071,0.938 0.826,2.503 3.538,2.709 0.275,0.021 0.482,0.261 0.46,0.537 -0.019,0.26 -0.238,0.46 -0.497,0.46 z"
   id="path107" />
					</g>
				</g>
			</g>
			<g
   id="g135">
				<g
   id="g122">
					<g
   id="g111">
						<path
   style="fill:#ffdd80"
   d="m 240.698,175.422 c -1.394,2.978 -3.428,3.262 -4.331,2.839 -0.902,-0.422 -1.988,-2.166 -0.594,-5.144 1.394,-2.978 4.876,-6 5.642,-5.641 0.767,0.358 0.677,4.968 -0.717,7.946 z"
   id="path110" />
					</g>
					<g
   id="g112">
						<path
   style="fill:#e8b64f"
   d="m 231.31,206.871 c 4.051,1.914 4.447,4.643 3.88,5.845 -0.567,1.202 -2.928,2.629 -6.979,0.715 -4.051,-1.914 -8.174,-6.624 -7.691,-7.646 0.482,-1.02 6.739,-0.828 10.79,1.086 z"
   id="path111" />
					</g>
					<g
   id="g113">
						<path
   style="fill:#ecbd57"
   d="m 230.232,198.697 c 3.632,1.716 3.987,4.162 3.478,5.24 -0.509,1.078 -2.625,2.357 -6.257,0.642 -3.632,-1.716 -7.328,-5.939 -6.895,-6.854 0.433,-0.916 6.042,-0.743 9.674,0.972 z"
   id="path112" />
					</g>
					<g
   id="g114">
						<path
   style="fill:#f0c35f"
   d="m 231.276,191.551 c 3.316,1.641 3.581,3.943 3.082,4.952 -0.499,1.009 -2.49,2.194 -5.806,0.553 -3.316,-1.641 -6.626,-5.639 -6.202,-6.496 0.424,-0.857 5.61,-0.65 8.926,0.991 z"
   id="path113" />
					</g>
					<g
   id="g115">
						<path
   style="fill:#f0c35f"
   d="m 237.236,191.551 c -3.316,1.641 -3.581,3.943 -3.082,4.952 0.499,1.009 2.49,2.194 5.806,0.553 3.316,-1.641 6.626,-5.639 6.202,-6.496 -0.424,-0.857 -5.61,-0.65 -8.926,0.991 z"
   id="path114" />
					</g>
					<g
   id="g116">
						<path
   style="fill:#f7d070"
   d="m 232.072,184.657 c 2.821,1.683 2.837,3.838 2.291,4.754 -0.546,0.915 -2.45,1.925 -5.271,0.242 -2.821,-1.683 -5.409,-5.56 -4.945,-6.337 0.463,-0.779 5.103,-0.343 7.925,1.341 z"
   id="path115" />
					</g>
					<g
   id="g117">
						<path
   style="fill:#f7d070"
   d="m 237.854,184.344 c -2.981,1.381 -3.22,3.523 -2.772,4.49 0.448,0.967 2.237,2.169 5.218,0.788 2.981,-1.381 5.958,-4.968 5.577,-5.789 -0.381,-0.822 -5.042,-0.87 -8.023,0.511 z"
   id="path116" />
					</g>
					<g
   id="g118">
						<path
   style="fill:#fbd678"
   d="m 233.927,177.787 c 2.62,1.623 2.535,3.751 1.97,4.663 -0.565,0.912 -2.432,1.935 -5.052,0.312 -2.62,-1.623 -4.915,-5.416 -4.435,-6.19 0.479,-0.774 4.897,-0.408 7.517,1.215 z"
   id="path117" />
					</g>
					<g
   id="g119">
						<path
   style="fill:#e8b64f"
   d="m 239.192,206.871 c -4.051,1.914 -4.447,4.643 -3.88,5.845 0.567,1.202 2.928,2.629 6.979,0.715 4.051,-1.914 8.174,-6.624 7.691,-7.646 -0.482,-1.02 -6.739,-0.828 -10.79,1.086 z"
   id="path118" />
					</g>
					<g
   id="g120">
						<path
   style="fill:#ecbd57"
   d="m 237.558,198.697 c -3.632,1.716 -3.987,4.162 -3.478,5.24 0.509,1.078 2.625,2.357 6.256,0.642 3.632,-1.716 7.328,-5.939 6.895,-6.854 -0.432,-0.916 -6.041,-0.743 -9.673,0.972 z"
   id="path119" />
					</g>
					<g
   id="g121">
						<path
   style="fill:#fbd678"
   d="m 238.6,178.79 c -2.84,1.382 -2.994,3.523 -2.523,4.489 0.47,0.966 2.249,2.167 5.09,0.785 2.84,-1.382 5.596,-4.969 5.196,-5.79 -0.4,-0.82 -4.923,-0.866 -7.763,0.516 z"
   id="path120" />
					</g>
				</g>
				<g
   id="g123">
					<path
   style="fill:#47124e"
   d="m 245.604,232.726 c -0.131,0 -0.261,-0.051 -0.359,-0.152 -19.078,-19.737 -8.672,-55.32 -8.565,-55.677 0.08,-0.264 0.354,-0.414 0.623,-0.335 0.264,0.08 0.414,0.358 0.335,0.623 -0.106,0.352 -10.343,35.381 8.326,54.694 0.192,0.199 0.187,0.515 -0.012,0.707 -0.098,0.093 -0.223,0.14 -0.348,0.14 z"
   id="path122" />
				</g>
				<g
   id="g134">
					<g
   id="g124">
						<path
   style="fill:#47124e"
   d="m 231.87,214.865 c -0.989,0 -2.283,-0.23 -3.872,-0.981 -0.25,-0.118 -0.357,-0.416 -0.239,-0.665 0.118,-0.25 0.415,-0.358 0.665,-0.239 2.121,1.003 3.602,0.975 4.47,0.776 1.035,-0.238 1.63,-0.803 1.843,-1.253 0.118,-0.249 0.415,-0.357 0.665,-0.239 0.25,0.118 0.356,0.416 0.239,0.665 -0.405,0.858 -1.349,1.531 -2.523,1.8 -0.34,0.079 -0.756,0.136 -1.248,0.136 z"
   id="path123" />
					</g>
					<g
   id="g125">
						<path
   style="fill:#47124e"
   d="m 230.734,205.915 c -0.893,0 -2.062,-0.207 -3.494,-0.884 -0.25,-0.118 -0.356,-0.416 -0.239,-0.666 0.118,-0.249 0.416,-0.357 0.666,-0.239 1.889,0.892 3.204,0.868 3.974,0.692 0.91,-0.209 1.432,-0.703 1.617,-1.095 0.118,-0.249 0.416,-0.357 0.665,-0.239 0.25,0.118 0.357,0.416 0.239,0.666 -0.37,0.783 -1.229,1.397 -2.297,1.643 -0.308,0.07 -0.685,0.122 -1.131,0.122 z"
   id="path124" />
					</g>
					<g
   id="g126">
						<path
   style="fill:#47124e"
   d="m 231.588,198.363 c -0.919,0 -2.011,-0.241 -3.258,-0.858 -0.248,-0.123 -0.349,-0.422 -0.227,-0.67 0.123,-0.247 0.422,-0.35 0.67,-0.227 2.91,1.441 4.695,0.564 5.137,-0.327 0.122,-0.247 0.422,-0.349 0.67,-0.227 0.247,0.122 0.349,0.423 0.227,0.67 -0.399,0.805 -1.511,1.639 -3.219,1.639 z"
   id="path125" />
					</g>
					<g
   id="g127">
						<path
   style="fill:#47124e"
   d="m 236.924,198.363 c -1.708,0 -2.82,-0.833 -3.218,-1.638 -0.123,-0.247 -0.021,-0.547 0.227,-0.67 0.247,-0.123 0.547,-0.021 0.67,0.227 0.441,0.891 2.227,1.768 5.136,0.327 0.247,-0.123 0.546,-0.021 0.67,0.227 0.123,0.247 0.021,0.547 -0.227,0.67 -1.247,0.615 -2.339,0.857 -3.258,0.857 z"
   id="path126" />
					</g>
					<g
   id="g128">
						<path
   style="fill:#47124e"
   d="m 231.967,191.057 c -0.793,0 -1.856,-0.215 -3.132,-0.976 -0.237,-0.141 -0.315,-0.448 -0.173,-0.686 0.141,-0.237 0.448,-0.314 0.686,-0.173 1.436,0.857 2.506,0.903 3.146,0.79 0.762,-0.133 1.243,-0.531 1.439,-0.859 0.142,-0.237 0.448,-0.315 0.686,-0.174 0.237,0.142 0.315,0.449 0.174,0.686 -0.401,0.672 -1.195,1.17 -2.126,1.332 -0.203,0.036 -0.437,0.06 -0.7,0.06 z"
   id="path127" />
					</g>
					<g
   id="g129">
						<path
   style="fill:#47124e"
   d="m 237.786,190.743 c -1.686,0 -2.779,-0.882 -3.157,-1.698 -0.116,-0.251 -0.007,-0.548 0.243,-0.664 0.253,-0.117 0.549,-0.006 0.664,0.243 0.392,0.846 1.974,1.742 4.554,0.545 0.253,-0.116 0.548,-0.007 0.664,0.243 0.116,0.251 0.007,0.548 -0.243,0.664 -1.03,0.476 -1.942,0.667 -2.725,0.667 z"
   id="path128" />
					</g>
					<g
   id="g130">
						<path
   style="fill:#47124e"
   d="m 233.49,184.115 c -0.843,0 -1.826,-0.257 -2.908,-0.928 -0.235,-0.145 -0.307,-0.454 -0.162,-0.688 0.145,-0.235 0.454,-0.308 0.688,-0.162 2.249,1.394 3.87,0.646 4.364,-0.151 0.145,-0.234 0.453,-0.309 0.688,-0.162 0.235,0.145 0.307,0.454 0.162,0.688 -0.434,0.703 -1.442,1.403 -2.832,1.403 z"
   id="path129" />
					</g>
					<g
   id="g131">
						<path
   style="fill:#47124e"
   d="m 238.632,214.865 c -0.492,0 -0.908,-0.057 -1.248,-0.135 -1.175,-0.27 -2.118,-0.942 -2.523,-1.8 -0.118,-0.249 -0.011,-0.547 0.239,-0.665 0.25,-0.118 0.547,-0.011 0.665,0.239 0.212,0.45 0.808,1.015 1.843,1.253 0.869,0.198 2.349,0.227 4.471,-0.776 3.882,-1.834 7.56,-6.165 7.443,-7.008 -0.118,-0.25 -0.006,-0.533 0.243,-0.651 0.252,-0.12 0.553,0.003 0.671,0.253 0.47,0.995 -1.2,2.962 -2.236,4.047 -1.745,1.825 -3.82,3.379 -5.694,4.264 -1.59,0.749 -2.885,0.979 -3.874,0.979 z"
   id="path130" />
					</g>
					<g
   id="g132">
						<path
   style="fill:#47124e"
   d="m 237.056,205.915 c -0.446,0 -0.823,-0.052 -1.13,-0.122 -1.069,-0.245 -1.928,-0.859 -2.297,-1.643 -0.118,-0.25 -0.011,-0.548 0.239,-0.666 0.251,-0.119 0.548,-0.01 0.665,0.239 0.185,0.392 0.707,0.886 1.617,1.095 0.771,0.176 2.086,0.2 3.974,-0.692 3.464,-1.637 6.709,-5.443 6.643,-6.23 -0.118,-0.25 -0.005,-0.527 0.245,-0.645 0.25,-0.119 0.554,0.01 0.672,0.26 0.435,0.92 -1.075,2.704 -2.014,3.686 -1.568,1.64 -3.434,3.038 -5.12,3.834 -1.433,0.677 -2.601,0.884 -3.494,0.884 z"
   id="path131" />
					</g>
					<g
   id="g133">
						<path
   style="fill:#47124e"
   d="m 238.746,185.188 c -1.634,0 -2.724,-0.876 -3.119,-1.689 -0.121,-0.248 -0.018,-0.547 0.231,-0.668 0.25,-0.12 0.548,-0.017 0.668,0.231 0.412,0.846 1.976,1.744 4.421,0.554 0.25,-0.12 0.549,-0.017 0.668,0.231 0.121,0.248 0.018,0.547 -0.231,0.669 -0.988,0.479 -1.873,0.672 -2.638,0.672 z"
   id="path132" />
					</g>
				</g>
			</g>
			<g
   id="g136">
				<path
   style="fill:#fbd678"
   d="m 243.911,178.917 c -0.03,0 -0.061,-0.003 -0.092,-0.008 -0.271,-0.051 -0.451,-0.312 -0.4,-0.583 0.055,-0.296 1.379,-7.299 4.302,-12.243 0.141,-0.237 0.448,-0.316 0.685,-0.176 0.238,0.14 0.316,0.447 0.176,0.685 -2.832,4.79 -4.166,11.846 -4.179,11.917 -0.046,0.24 -0.256,0.408 -0.492,0.408 z"
   id="path135" />
			</g>
			<g
   id="g137">
				<path
   style="fill:#fbd678"
   d="m 229.607,177.54 c -0.03,0 -0.061,-0.002 -0.092,-0.008 -0.271,-0.051 -0.451,-0.311 -0.4,-0.583 0.055,-0.296 1.379,-7.3 4.302,-12.243 0.141,-0.237 0.449,-0.316 0.685,-0.176 0.238,0.14 0.316,0.447 0.176,0.685 -2.833,4.793 -4.166,11.846 -4.179,11.917 -0.046,0.24 -0.256,0.408 -0.492,0.408 z"
   id="path136" />
			</g>
			<g
   id="g138">
				<path
   style="fill:#fbd678"
   d="m 271.365,185.336 c -0.094,0 -0.188,-0.026 -0.272,-0.081 -0.231,-0.151 -0.297,-0.46 -0.146,-0.691 0.097,-0.149 2.44,-3.692 7.441,-6.58 0.238,-0.139 0.545,-0.057 0.683,0.183 0.138,0.239 0.056,0.545 -0.183,0.683 -4.781,2.761 -7.081,6.226 -7.103,6.26 -0.097,0.146 -0.257,0.226 -0.42,0.226 z"
   id="path137" />
			</g>
			<g
   id="g139">
				<path
   style="fill:#fbd678"
   d="m 259.58,177.114 c -0.106,0 -0.213,-0.034 -0.304,-0.104 -0.219,-0.168 -0.26,-0.482 -0.092,-0.701 0.103,-0.133 2.565,-3.298 7.549,-6.175 0.238,-0.139 0.544,-0.057 0.683,0.183 0.138,0.239 0.056,0.545 -0.183,0.683 -4.799,2.77 -7.232,5.887 -7.256,5.918 -0.099,0.129 -0.248,0.196 -0.397,0.196 z"
   id="path138" />
			</g>
		</g>
	</g></svg>
