<?xml version="1.0" encoding="UTF-8" standalone="no"?>
<svg
   version="1.1"
   width="1844"
   height="1844"
   style="clip-rule:evenodd;fill-rule:evenodd;image-rendering:optimizeQuality;shape-rendering:geometricPrecision;text-rendering:geometricPrecision"
   id="svg21"
   xmlns="http://www.w3.org/2000/svg"
   xmlns:svg="http://www.w3.org/2000/svg">
  <defs
     id="defs21" />
  <g
     id="g1">
    <path
       style="opacity:0.997"
       fill="#8a1b20"
       d="m 808.5,213.5 c 30.559,-2.423 57.892,5.744 82,24.5 11.103,9.1 21.603,18.933 31.5,29.5 17.115,-20.789 37.948,-36.622 62.5,-47.5 21.03,-7.418 42.36,-8.418 64,-3 6.79,6.074 6.45,11.741 -1,17 -21.41,2.775 -38.25,12.942 -50.5,30.5 -1.323,7.512 1.844,11.179 9.5,11 79,-9.755 149.67,9.745 212,58.5 5.96,2.868 10.46,1.368 13.5,-4.5 -0.6,-17.206 5.23,-31.706 17.5,-43.5 14.45,-8.89 30.12,-11.89 47,-9 27.53,9.173 52.03,23.34 73.5,42.5 19.96,24.033 20.62,48.7 2,74 -5.69,6.688 -11.69,13.022 -18,19 -3.37,7.542 -2.37,14.542 3,21 25.4,21.504 47.06,46.171 65,74 20.81,31.953 37.64,65.953 50.5,102 -1.15,7.485 -5.48,11.485 -13,12 -5.25,-1.473 -10.58,-1.973 -16,-1.5 -4.46,2.071 -7.13,5.571 -8,10.5 57.54,115.058 68.37,234.391 32.5,358 -11.62,37.73 -27.45,73.57 -47.5,107.5 -16.14,7.74 -25.98,2.91 -29.5,-14.5 -4.33,-6.78 -10.5,-9.28 -18.5,-7.5 -5.97,2.11 -9.47,6.27 -10.5,12.5 -7.83,77.52 -33.83,148.18 -78,212 -43.79,61.13 -96.79,112.79 -159,155 -1.98,-0.49 -3.65,-1.49 -5,-3 0.13,-6.16 0.63,-12.33 1.5,-18.5 0.31,-6.56 -1.69,-12.23 -6,-17 -4.05,-1.94 -8.05,-1.77 -12,0.5 -31.24,67.73 -74.24,126.9 -129,177.5 -16.407,14.57 -34.074,27.41 -53,38.5 -39.545,-24.36 -74.045,-54.7 -103.5,-91 -31.142,-38.36 -57.308,-80.02 -78.5,-125 -8.287,-4.1 -13.787,-1.77 -16.5,7 -0.442,9.35 -0.442,18.69 0,28 -2.419,3.14 -5.253,3.64 -8.5,1.5 -71.616,-49.61 -130.116,-111.44 -175.5,-185.5 -32.766,-55.97 -52.099,-116.3 -58,-181 -1.062,-6.06 -4.562,-9.9 -10.5,-11.5 -7.999,-1.78 -14.166,0.72 -18.5,7.5 -2.771,16.47 -11.938,21.64 -27.5,15.5 -4.028,-3.89 -7.194,-8.39 -9.5,-13.5 -67.42,-126.284 -78.42,-257.284 -33,-393 7.818,-20.467 16.318,-40.634 25.5,-60.5 -0.53,-5.066 -3.196,-8.4 -8,-10 -5.418,-0.473 -10.752,0.027 -16,1.5 -8.567,-0.734 -12.734,-5.4 -12.5,-14 20.68,-56.734 51.013,-107.401 91,-152 7.954,-8.132 16.287,-15.799 25,-23 5.42,-7.154 5.753,-14.488 1,-22 -43.43,-40.81 -40.263,-77.643 9.5,-110.5 15.699,-9.016 32.033,-16.683 49,-23 41.637,-5.348 63.471,12.819 65.5,54.5 3.509,4.113 7.676,4.946 12.5,2.5 63.973,-49.308 136.306,-68.975 217,-59 4.361,-2.226 5.861,-5.726 4.5,-10.5 -12.007,-17.93 -28.841,-28.097 -50.5,-30.5 -7.827,-5.764 -7.827,-11.43 0,-17 4.419,-1.352 8.752,-2.519 13,-3.5 z"
       id="path1" />
  </g>
  <g
     id="g2">
    <path
       style="opacity:1"
       fill="#5b121c"
       d="m 1297.5,811.5 c -3,0 -6,0 -9,0 0,-0.667 -0.33,-1 -1,-1 -7.72,-31.648 -17.55,-62.648 -29.5,-93 -18.53,-47.403 -39.53,-93.736 -63,-139 -19.73,-34.738 -45.56,-64.238 -77.5,-88.5 -39.34,-24.893 -79.34,-25.893 -120,-3 -14.844,9.176 -28.844,19.509 -42,31 -12.395,13.064 -25.395,25.397 -39,37 -3.707,0.996 -7.041,0.33 -10,-2 -14.924,-18.261 -30.59,-35.928 -47,-53 -44.383,-39.631 -93.05,-45.631 -146,-18 -34.346,18.012 -61.179,43.846 -80.5,77.5 -20.332,35.001 -35.999,72.001 -47,111 -14.115,48.129 -23.948,97.129 -29.5,147 -3.286,0.707 -6.619,1.04 -10,1 7.791,-68.164 23.291,-134.497 46.5,-199 10.498,-25.33 22.831,-49.663 37,-73 29.313,-45.258 70.147,-74.758 122.5,-88.5 31.899,-5.971 61.566,-0.305 89,17 14.676,10 28.176,21.5 40.5,34.5 9,11 18,22 27,33 2.589,3.81 5.422,3.977 8.5,0.5 17.13,-18.47 35.464,-35.47 55,-51 57.17,-41.98 113.17,-40.647 168,4 24.97,23.616 46.13,50.116 63.5,79.5 32.58,62.157 59.91,126.49 82,193 4.03,14.314 7.86,28.647 11.5,43 z"
       id="path2" />
  </g>
  <g
     id="g3">
    <path
       style="opacity:1"
       fill="#fefefe"
       d="m 1287.5,810.5 c -10.33,0.667 -20.67,1.333 -31,2 -33.48,-0.354 -66.14,4.479 -98,14.5 -7.77,3.11 -14.44,7.776 -20,14 50.99,-4.9 101.99,-10.066 153,-15.5 5.37,22.659 8.03,45.659 8,69 -42.05,-8.262 -84.38,-10.095 -127,-5.5 -11.16,1.594 -22.16,3.927 -33,7 52.63,4.941 105.3,9.441 158,13.5 -1.8,10.571 -5.3,20.571 -10.5,30 -56.86,89.86 -133.36,157.36 -229.5,202.5 -102.177,42.3 -202.844,38.96 -302,-10 -67.149,-35.2 -126.649,-80.7 -178.5,-136.5 -18.432,-23.46 -28.266,-50.127 -29.5,-80 52.402,-5.545 104.735,-11.711 157,-18.5 -52.609,-10.826 -104.943,-9.659 -157,3.5 1.676,-23.11 4.01,-46.11 7,-69 48.493,3.642 96.993,7.309 145.5,11 1.167,-0.333 2.333,-0.667 3.5,-1 -4.008,-4.83 -9.008,-8.33 -15,-10.5 -23.26,-8.318 -47.26,-12.652 -72,-13 -19.997,-0.5 -39.997,-0.667 -60,-0.5 5.552,-49.871 15.385,-98.871 29.5,-147 11.001,-38.999 26.668,-75.999 47,-111 19.321,-33.654 46.154,-59.488 80.5,-77.5 52.95,-27.631 101.617,-21.631 146,18 16.41,17.072 32.076,34.739 47,53 2.959,2.33 6.293,2.996 10,2 13.605,-11.603 26.605,-23.936 39,-37 13.156,-11.491 27.156,-21.824 42,-31 40.66,-22.893 80.66,-21.893 120,3 31.94,24.262 57.77,53.762 77.5,88.5 23.47,45.264 44.47,91.597 63,139 11.95,30.352 21.78,61.352 29.5,93 z"
       id="path3" />
  </g>
  <g
     id="g4">
    <path
       style="opacity:1"
       fill="#460a20"
       d="m 755.5,694.5 c 25.826,-1.005 38.66,11.329 38.5,37 -5.375,19.612 -18.209,28.112 -38.5,25.5 -13.22,-3.554 -21.386,-12.054 -24.5,-25.5 -1.186,-18.629 6.981,-30.962 24.5,-37 z"
       id="path4" />
  </g>
  <g
     id="g5">
    <path
       style="opacity:1"
       fill="#46091f"
       d="m 1057.5,699.5 c 33.36,-3.509 60.19,7.824 80.5,34 2.18,6.793 -0.16,10.793 -7,12 -12.61,-4.027 -25.44,-7.194 -38.5,-9.5 -26.87,-4.476 -52.21,-0.142 -76,13 -9.13,2.544 -12.96,-0.956 -11.5,-10.5 6.23,-17.225 18.06,-28.725 35.5,-34.5 5.68,-2 11.34,-3.5 17,-4.5 z"
       id="path5" />
  </g>
  <g
     id="g6">
    <path
       style="opacity:1"
       fill="#f7f5f6"
       d="m 776.5,717.5 c 4.618,2.315 8.951,5.148 13,8.5 -4.167,2.833 -8.333,5.667 -12.5,8.5 -2.885,-2.548 -5.385,-5.382 -7.5,-8.5 0.362,-1.225 0.862,-2.391 1.5,-3.5 2.191,-1.333 4.024,-3 5.5,-5 z"
       id="path6" />
  </g>
  <g
     id="g7">
    <path
       style="opacity:1"
       fill="#46091f"
       d="m 895.5,792.5 c 33.217,-1.02 64.884,5.48 95,19.5 16.63,11.632 17.29,24.299 2,38 -5.333,3.333 -10.667,6.667 -16,10 -16.485,7.41 -32.818,15.076 -49,23 -3.283,1.561 -6.117,3.727 -8.5,6.5 -2.584,28.4 -1.584,56.734 3,85 5.871,14.203 16.038,24.037 30.5,29.5 4.577,1.64 9.244,2.98 14,4 10.333,0.67 20.667,0.67 31,0 13.71,-1.27 24.88,-7.1 33.5,-17.5 2.85,-4.596 4.02,-9.596 3.5,-15 -1.05,-6.642 -1.55,-13.308 -1.5,-20 0.99,-3.993 2.99,-7.327 6,-10 13.89,18.331 14.89,37.331 3,57 -19.27,19.09 -42.432,26.59 -69.5,22.5 -20.637,-4.49 -38.97,-13.49 -55,-27 -5.845,-3.454 -11.512,-3.12 -17,1 -24.04,20.12 -51.707,28.79 -83,26 -16.905,-3.19 -30.738,-11.36 -41.5,-24.5 -7.935,-14.642 -8.602,-29.642 -2,-45 1.434,-3.882 3.6,-7.215 6.5,-10 2.822,2.337 4.655,5.337 5.5,9 0.605,7.407 0.105,14.741 -1.5,22 0.342,8.851 4.009,16.018 11,21.5 7.549,5.27 15.882,8.61 25,10 24.485,4.31 46.485,-1.02 66,-16 9.023,-10.063 13.523,-21.896 13.5,-35.5 1.533,-21.976 1.866,-43.976 1,-66 -1.833,-1.833 -3.667,-3.667 -5.5,-5.5 -19.333,-9.333 -38.667,-18.667 -58,-28 -7.094,-4.097 -13.261,-9.264 -18.5,-15.5 -5.927,-10.398 -4.093,-19.231 5.5,-26.5 10.803,-6.899 22.47,-11.899 35,-15 12.048,-3.021 24.048,-5.521 36,-7.5 z"
       id="path7" />
  </g>
  <g
     id="g8">
    <path
       style="opacity:1"
       fill="#805464"
       d="m 1287.5,810.5 c 0.67,0 1,0.333 1,1 -10.49,0.994 -21.15,1.328 -32,1 10.33,-0.667 20.67,-1.333 31,-2 z"
       id="path8" />
  </g>
  <g
     id="g9">
    <path
       style="opacity:1"
       fill="#47091f"
       d="m 1288.5,811.5 c 3,0 6,0 9,0 25.87,1.018 51.87,2.518 78,4.5 -24.98,3.044 -49.98,5.877 -75,8.5 -3.07,-0.132 -6.07,0.201 -9,1 -51.01,5.434 -102.01,10.6 -153,15.5 5.56,-6.224 12.23,-10.89 20,-14 31.86,-10.021 64.52,-14.854 98,-14.5 10.85,0.328 21.51,-0.006 32,-1 z"
       id="path9" />
  </g>
  <g
     id="g10">
    <path
       style="opacity:1"
       fill="#470a20"
       d="m 556.5,817.5 c 20.003,-0.167 40.003,0 60,0.5 24.74,0.348 48.74,4.682 72,13 5.992,2.17 10.992,5.67 15,10.5 -1.167,0.333 -2.333,0.667 -3.5,1 -48.507,-3.691 -97.007,-7.358 -145.5,-11 -3.333,0 -6.667,0 -10,0 -26.525,-2.015 -53.191,-4.182 -80,-6.5 27.25,-3.306 54.584,-5.472 82,-6.5 3.381,0.04 6.714,-0.293 10,-1 z"
       id="path10" />
  </g>
  <g
     id="g11">
    <path
       style="opacity:1"
       fill="#5b121b"
       d="m 1300.5,824.5 c 5.49,23.644 8.16,47.644 8,72 -3.05,-0.562 -6.05,-1.229 -9,-2 0.03,-23.341 -2.63,-46.341 -8,-69 2.93,-0.799 5.93,-1.132 9,-1 z"
       id="path11" />
  </g>
  <g
     id="g12">
    <path
       style="opacity:1"
       fill="#5c131c"
       d="m 544.5,831.5 c 3.333,0 6.667,0 10,0 -2.99,22.89 -5.324,45.89 -7,69 -3.039,0.51 -6.039,1.177 -9,2 1.158,-23.739 3.158,-47.406 6,-71 z"
       id="path12" />
  </g>
  <g
     id="g13">
    <path
       style="opacity:1"
       fill="#470a20"
       d="m 1299.5,894.5 c 2.95,0.771 5.95,1.438 9,2 20.26,5.232 40.26,11.399 60,18.5 -20.66,-1.277 -41.32,-2.777 -62,-4.5 -2.89,-0.903 -5.89,-1.236 -9,-1 -52.7,-4.059 -105.37,-8.559 -158,-13.5 10.84,-3.073 21.84,-5.406 33,-7 42.62,-4.595 84.95,-2.762 127,5.5 z"
       id="path13" />
  </g>
  <g
     id="g14">
    <path
       style="opacity:1"
       fill="#490d22"
       d="m 547.5,915.5 c -4.437,0.613 -8.77,1.28 -13,2 -18.316,2.277 -36.649,4.11 -55,5.5 19.026,-8.731 38.693,-15.564 59,-20.5 2.961,-0.823 5.961,-1.49 9,-2 52.057,-13.159 104.391,-14.326 157,-3.5 -52.265,6.789 -104.598,12.955 -157,18.5 z"
       id="path14" />
  </g>
  <g
     id="g15">
    <path
       style="opacity:1"
       fill="#4a0f23"
       d="m 862.5,895.5 c 9.712,-0.791 13.545,3.542 11.5,13 -5.743,6.921 -11.076,6.588 -16,-1 -1.526,-5.261 -0.026,-9.261 4.5,-12 z"
       id="path15" />
  </g>
  <g
     id="g16">
    <path
       style="opacity:1"
       fill="#490e23"
       d="m 963.5,896.5 c 11.383,-1.516 15.549,3.15 12.5,14 -6.137,5.755 -11.47,5.088 -16,-2 -1.255,-4.762 -0.088,-8.762 3.5,-12 z"
       id="path16" />
  </g>
  <g
     id="g17">
    <path
       style="opacity:1"
       fill="#490e23"
       d="m 809.5,902.5 c 10.349,0.184 13.849,5.184 10.5,15 -5,4 -10,4 -15,0 -2.936,-6.442 -1.436,-11.442 4.5,-15 z"
       id="path17" />
  </g>
  <g
     id="g18">
    <path
       style="opacity:1"
       fill="#5b131c"
       d="m 1297.5,909.5 c 3.11,-0.236 6.11,0.097 9,1 -1.66,10.468 -4.82,20.468 -9.5,30 -54.43,87.94 -127.59,155.44 -219.5,202.5 -116.609,53.59 -231.275,49.59 -344,-12 -60.878,-34.85 -115.378,-78.02 -163.5,-129.5 -19.477,-24.592 -29.977,-52.592 -31.5,-84 -1.333,0 -2.667,0 -4,0 4.23,-0.72 8.563,-1.387 13,-2 1.234,29.873 11.068,56.54 29.5,80 51.851,55.8 111.351,101.3 178.5,136.5 99.156,48.96 199.823,52.3 302,10 96.14,-45.14 172.64,-112.64 229.5,-202.5 5.2,-9.429 8.7,-19.429 10.5,-30 z"
       id="path18" />
  </g>
  <g
     id="g19">
    <path
       style="opacity:1"
       fill="#4a0f23"
       d="m 1002.5,926.5 c 11.31,-0.215 14.81,4.785 10.5,15 -6.16,4.634 -11.16,3.634 -15,-3 -0.667,-2.333 -0.667,-4.667 0,-7 1.707,-1.537 3.21,-3.204 4.5,-5 z"
       id="path19" />
  </g>
  <g
     id="g20">
    <path
       style="opacity:1"
       fill="#4b1024"
       d="m 846.5,933.5 c 10.413,-0.438 14.246,4.229 11.5,14 -6.137,5.755 -11.47,5.088 -16,-2 -1.024,-4.952 0.476,-8.952 4.5,-12 z"
       id="path20" />
  </g>
  <g
     id="g21">
    <path
       style="opacity:1"
       fill="#4a0e23"
       d="m 967.5,935.5 c 11.872,0 15.205,5.167 10,15.5 -10.5,4.157 -15.333,0.657 -14.5,-10.5 1.059,-2.159 2.559,-3.826 4.5,-5 z"
       id="path21" />
  </g>
</svg>
